<svg width="320" height="874" viewBox="0 0 320 874" fill="none" xmlns="http://www.w3.org/2000/svg">
<mask id="mask0_2303_3303" style="mask-type:luminance" maskUnits="userSpaceOnUse" x="0" y="-252" width="320" height="1378">
<path d="M95.561 951.734L97.1234 951.208L97.3634 951.26C96.757 951.422 96.1556 951.58 95.5594 951.734M88.7482 951.502C90.057 951.019 91.3882 950.517 92.7418 949.997C93.0746 950.112 93.4124 950.223 93.7554 950.331C92.3687 950.783 91.0124 951.211 89.6866 951.615C89.3714 951.581 89.0602 951.542 88.7498 951.502L88.7482 951.502ZM83.2737 953.448L85.2137 952.776L85.5066 952.84C84.754 953.05 84.0103 953.253 83.2753 953.448L83.2737 953.448ZM254.954 457.668L254.989 457.587L254.951 457.678L254.954 457.668ZM83.589 950.481C85.2866 949.792 87.0199 949.073 88.789 948.323C89.2274 948.547 89.6761 948.761 90.1353 948.966C88.3892 949.624 86.6826 950.247 85.0153 950.836C84.5289 950.726 84.0535 950.607 83.589 950.481ZM76.765 953.157C78.133 952.639 79.525 952.101 80.941 951.543C81.2738 951.665 81.6119 951.781 81.9554 951.892C80.5153 952.379 79.105 952.838 77.7242 953.27C77.3999 953.238 77.0802 953.201 76.765 953.157ZM70.8994 955.3C71.7154 955.013 72.542 954.719 73.3794 954.418L73.7362 954.499C72.7735 954.775 71.8279 955.039 70.8994 955.292L70.8994 955.3ZM249.751 469.991L250.059 468.738C250.707 467.291 251.352 465.845 251.992 464.401L251.731 465.349C251.076 466.895 250.416 468.442 249.751 469.991ZM247.869 477.492L247.912 477.322L248.464 476.055L247.869 477.492ZM109.135 949.727L109.327 949.766L107.978 950.106L109.135 949.727ZM104.647 948.522C104.978 948.633 105.313 948.739 105.652 948.841C104.319 949.259 103.012 949.657 101.732 950.035C101.423 950 101.118 949.964 100.816 949.925C102.072 949.473 103.349 949.004 104.647 948.519L104.647 948.522ZM100.567 946.88C101.014 947.096 101.467 947.305 101.934 947.504C100.24 948.117 98.5818 948.702 96.9593 949.26C96.4724 949.153 95.994 949.038 95.5242 948.916C97.1748 948.262 98.8551 947.582 100.565 946.877L100.567 946.88ZM96.9393 944.811C97.4194 945.131 97.9066 945.434 98.409 945.73C96.4314 946.534 94.4988 947.3 92.6113 948.026C92.0508 947.827 91.5044 947.616 90.9722 947.391L92.9858 946.518C94.3143 945.935 95.6316 945.365 96.9377 944.808L96.9393 944.811ZM244.459 482.154C244.619 481.462 244.766 480.776 244.918 480.08C245.792 478.173 246.661 476.267 247.525 474.362L247.031 476.286C246.184 478.238 245.327 480.194 244.461 482.151L244.459 482.154ZM242.662 489.892C242.774 489.423 242.891 488.952 243.002 488.483C243.676 486.968 244.348 485.454 245.016 483.941L244.714 485.054C244.035 486.665 243.352 488.276 242.663 489.889L242.662 489.892ZM240.8 497.473L240.88 497.136L241.942 494.673L240.8 497.473ZM121.252 948.334L121.405 948.366L120.349 948.619L121.252 948.334ZM116.648 947.129C116.979 947.235 117.315 947.337 117.652 947.435C116.365 947.821 115.099 948.19 113.855 948.541L112.952 948.434C114.165 948.017 115.396 947.583 116.646 947.132L116.648 947.129ZM112.56 945.552C112.982 945.744 113.411 945.929 113.847 946.107C112.193 946.685 110.575 947.237 108.991 947.762C108.498 947.66 108.013 947.547 107.537 947.423C108.308 947.126 109.085 946.825 109.869 946.518C110.77 946.191 111.667 945.87 112.56 945.555L112.56 945.552ZM108.898 943.6C109.327 943.867 109.764 944.125 110.213 944.375L109.676 944.569L109.668 944.569C107.921 945.256 106.208 945.913 104.53 946.54C103.968 946.35 103.42 946.146 102.884 945.927C104.913 945.127 106.917 944.353 108.895 943.603L108.898 943.6ZM105.587 941.232C106.036 941.604 106.499 941.962 106.976 942.304C105.079 943.032 103.159 943.787 101.216 944.566L100.496 944.873C99.9367 944.594 99.393 944.301 98.865 943.994C101.136 943.036 103.376 942.117 105.585 941.235L105.587 941.232ZM239.011 494.361C239.194 493.458 239.378 492.554 239.556 491.652C240.614 489.393 241.665 487.135 242.71 484.878C242.512 485.735 242.316 486.591 242.114 487.451C241.087 489.754 240.053 492.057 239.011 494.361ZM237.36 502.158C237.52 501.416 237.68 500.673 237.84 499.931C238.736 497.963 239.628 495.996 240.514 494.03L239.992 496.111C239.122 498.126 238.245 500.141 237.36 502.158ZM235.59 509.966L235.96 508.392C236.661 506.806 237.36 505.22 238.056 503.634L237.704 504.945C237.005 506.614 236.301 508.287 235.591 509.962L235.59 509.966ZM233.757 517.621L233.882 517.107L235.254 513.892L235.227 513.991C234.74 515.195 234.251 516.401 233.76 517.612L233.757 517.621ZM138.4 945.924L138.026 945.875C139.208 945.609 140.379 945.351 141.54 945.101C140.479 945.386 139.433 945.661 138.4 945.924ZM133.435 947.07L133.557 947.096L132.72 947.278L133.435 947.07ZM128.972 945.912C129.233 945.993 129.493 946.073 129.757 946.149C128.516 946.506 127.295 946.846 126.095 947.169C125.789 947.134 125.483 947.099 125.182 947.059L126.759 946.528L128.972 945.912ZM124.953 944.444C125.25 944.571 125.547 944.697 125.85 944.816C124.242 945.36 122.664 945.877 121.118 946.367C120.66 946.27 120.209 946.168 119.765 946.061C121.515 945.5 123.245 944.961 124.953 944.444ZM121.204 942.599C121.584 942.815 121.969 943.025 122.363 943.228C120.966 943.661 119.556 944.108 118.135 944.568L118.122 944.568L116.555 945.139C116.075 944.986 115.595 944.817 115.133 944.644C117.186 943.934 119.208 943.252 121.2 942.599L121.204 942.599ZM117.772 940.367C118.199 940.684 118.635 940.99 119.08 941.285C116.924 942.006 114.736 942.76 112.515 943.547C112.004 943.308 111.501 943.061 111.014 942.803C113.303 941.952 115.556 941.139 117.772 940.367ZM114.671 937.744C115.106 938.163 115.555 938.571 116.018 938.969C113.683 939.797 111.31 940.667 108.898 941.579C108.371 941.244 107.863 940.894 107.367 940.531C109.846 939.552 112.28 938.623 114.671 937.744ZM233.386 506.659C233.579 505.601 233.772 504.545 233.958 503.489C235.181 500.93 236.395 498.373 237.602 495.817C237.388 496.846 237.171 497.876 236.949 498.908C235.771 501.489 234.583 504.073 233.386 506.659ZM231.902 514.467C232.091 513.518 232.275 512.569 232.462 511.621C233.545 509.296 234.621 506.972 235.689 504.647C235.486 505.551 235.284 506.456 235.075 507.362C234.025 509.728 232.968 512.096 231.902 514.467ZM230.294 522.317C230.462 521.525 230.626 520.735 230.79 519.944C231.711 517.909 232.627 515.874 233.538 513.837L232.997 516.056C232.102 518.143 231.201 520.229 230.294 522.315L230.294 522.317ZM228.558 530.2L228.944 528.48C229.675 526.816 230.402 525.152 231.125 523.489L230.743 524.955C230.02 526.702 229.292 528.45 228.56 530.198L228.558 530.2ZM226.739 537.986L226.914 537.256C227.406 536.098 227.896 534.939 228.384 533.781L228.298 534.087C227.78 535.386 227.26 536.686 226.739 537.985L226.739 537.986ZM137.895 943.603L138.386 943.796C137.285 944.044 136.176 944.299 135.059 944.562L135.039 944.569L133.367 945.084L132.647 944.931C134.417 944.463 136.166 944.021 137.895 943.603ZM134.007 941.852C134.322 942.005 134.64 942.173 134.967 942.33C132.979 942.835 130.964 943.367 128.919 943.926C128.567 943.816 128.221 943.7 127.879 943.58C129.951 942.969 131.993 942.391 134.007 941.846L134.007 941.852ZM130.395 939.744C130.789 940.004 131.195 940.258 131.603 940.509C129.417 941.122 127.195 941.767 124.939 942.446C124.483 942.248 124.036 942.044 123.598 941.834C125.902 941.092 128.167 940.393 130.395 939.738L130.395 939.744ZM127.101 937.271C127.528 937.634 127.964 937.986 128.412 938.329C126.061 939.037 123.669 939.789 121.235 940.583C120.735 940.292 120.247 939.991 119.77 939.681C122.26 938.826 124.704 938.02 127.101 937.265L127.101 937.271ZM124.132 934.436C124.561 934.895 124.999 935.347 125.453 935.785C122.967 936.581 120.433 937.428 117.853 938.328C117.347 937.94 116.851 937.541 116.375 937.129C119.014 936.168 121.599 935.269 124.132 934.43L124.132 934.436ZM190.217 142.858L190.321 144.155L190.2 143.896L190.028 142.549L190.217 142.858ZM227.572 519.083C227.757 517.917 227.937 516.753 228.112 515.591C229.484 512.775 230.847 509.96 232.202 507.145C231.989 508.3 231.769 509.458 231.547 510.615C230.233 513.438 228.908 516.261 227.572 519.083ZM226.267 526.864C226.46 525.761 226.652 524.661 226.838 523.56C228.082 520.943 229.319 518.326 230.546 515.709C230.329 516.784 230.109 517.859 229.886 518.936C228.688 521.579 227.482 524.223 226.267 526.868L226.267 526.864ZM224.827 534.738C225.018 533.736 225.208 532.737 225.393 531.738C226.497 529.35 227.595 526.962 228.686 524.573C228.477 525.531 228.266 526.49 228.051 527.45C226.984 529.879 225.908 532.308 224.826 534.738L224.827 534.738ZM223.254 542.683C223.43 541.832 223.604 540.979 223.774 540.13C224.72 538.023 225.66 535.916 226.594 533.81C226.41 534.597 226.226 535.384 226.038 536.172C225.116 538.339 224.187 540.509 223.253 542.683L223.254 542.683ZM221.565 550.655L221.981 548.743C222.74 547 223.493 545.257 224.24 543.515C224.105 544.057 223.973 544.597 223.835 545.139C223.083 546.978 222.326 548.817 221.563 550.655L221.565 550.655ZM219.791 558.543L220.023 557.529C220.552 556.268 221.079 555.007 221.602 553.748L221.442 554.371C220.893 555.761 220.342 557.152 219.79 558.543L219.791 558.543ZM151.631 943.106L151.696 943.129L149.651 943.467L151.631 943.106ZM147.481 941.422C147.712 941.529 147.941 941.636 148.176 941.74C146.143 942.129 144.079 942.547 141.985 942.996L141.285 942.786C143.383 942.301 145.448 941.847 147.479 941.425L147.481 941.422ZM143.624 939.413C143.975 939.618 144.33 939.822 144.691 940.025C142.465 940.511 140.2 941.035 137.896 941.596C137.507 941.441 137.124 941.282 136.745 941.12C139.078 940.509 141.371 939.941 143.623 939.416L143.624 939.413ZM140.071 937.071C140.482 937.377 140.903 937.671 141.331 937.962C138.947 938.538 136.518 939.16 134.044 939.828C133.579 939.585 133.124 939.332 132.676 939.073C135.19 938.358 137.654 937.691 140.069 937.074L140.071 937.071ZM136.846 934.395C137.277 934.794 137.719 935.184 138.171 935.567C135.66 936.226 133.1 936.937 130.491 937.703C129.992 937.366 129.506 937.02 129.031 936.665C131.691 935.848 134.295 935.093 136.844 934.398L136.846 934.395ZM133.939 931.386C134.366 931.878 134.8 932.363 135.252 932.836C132.639 933.567 129.967 934.359 127.236 935.212C126.742 934.78 126.265 934.336 125.8 933.88C128.576 932.98 131.288 932.15 133.938 931.389L133.939 931.386ZM192.019 150.652L192.085 151.951L192.041 151.834L191.914 150.437L192.019 150.652ZM191.773 145.397L191.863 147.413L191.598 146.862L191.429 144.839L191.773 145.397ZM221.538 531.709C221.708 530.456 221.872 529.204 222.03 527.954C223.54 524.913 225.041 521.871 226.531 518.828C226.332 520.074 226.127 521.323 225.916 522.574C224.467 525.62 223.008 528.665 221.538 531.709ZM220.434 539.418C220.617 538.205 220.796 536.996 220.969 535.789C222.364 532.911 223.75 530.031 225.129 527.15C224.916 528.347 224.697 529.549 224.476 530.749C223.138 533.639 221.791 536.53 220.434 539.422L220.434 539.418ZM219.187 547.249C219.378 546.105 219.564 544.962 219.747 543.819C221.017 541.128 222.279 538.435 223.534 535.742C223.317 536.864 223.093 537.989 222.868 539.11C221.649 541.825 220.422 544.538 219.187 547.249ZM217.802 555.192C217.992 554.146 218.176 553.102 218.362 552.058C219.494 549.588 220.621 547.116 221.74 544.643C221.526 545.657 221.307 546.673 221.089 547.69C220 550.191 218.905 552.692 217.802 555.192ZM216.282 563.232C216.459 562.326 216.634 561.419 216.806 560.512C217.78 558.319 218.748 556.125 219.712 553.929C219.518 554.785 219.323 555.641 219.126 556.498C218.185 558.745 217.238 560.99 216.284 563.232L216.282 563.232ZM214.646 571.31C214.797 570.587 214.944 569.866 215.093 569.143C215.884 567.3 216.67 565.457 217.453 563.614L216.986 565.547C216.212 567.467 215.433 569.388 214.649 571.31L214.646 571.31ZM212.937 579.263L213.215 577.986C213.782 576.615 214.346 575.243 214.908 573.871L214.681 574.767C214.104 576.264 213.523 577.763 212.939 579.263L212.937 579.263ZM161.977 941.475L162.351 941.621C160.276 941.871 158.167 942.152 156.025 942.464L155.774 942.399C157.879 942.058 159.947 941.75 161.979 941.475L161.977 941.475ZM157.703 939.519C157.997 939.672 158.295 939.816 158.594 939.963C156.316 940.303 153.996 940.683 151.634 941.103C151.331 940.995 151.031 940.883 150.733 940.77C153.104 940.311 155.428 939.894 157.706 939.519L157.703 939.519ZM153.8 937.268C154.185 937.516 154.575 937.759 154.972 937.997C152.54 938.422 150.058 938.897 147.527 939.421C147.103 939.223 146.687 939.018 146.275 938.808C148.84 938.241 151.349 937.728 153.803 937.268L153.8 937.268ZM150.24 934.724C150.667 935.064 151.102 935.397 151.547 935.723C148.995 936.226 146.385 936.787 143.719 937.407C143.239 937.122 142.769 936.827 142.309 936.523C145.013 935.854 147.657 935.254 150.24 934.724ZM147.01 931.876C147.448 932.305 147.897 932.725 148.356 933.138C145.707 933.708 142.993 934.344 140.217 935.047C139.718 934.672 139.228 934.281 138.754 933.891C141.573 933.14 144.325 932.466 147.007 931.87L147.01 931.876ZM144.103 928.731C144.535 929.249 144.975 929.753 145.43 930.249C142.7 930.876 139.9 931.578 137.03 932.355C136.54 931.89 136.065 931.412 135.604 930.922C138.513 930.104 141.346 929.371 144.101 928.725L144.103 928.731ZM193.55 159.08L193.566 159.846L193.515 158.996L193.55 159.08ZM193.435 153.511L193.475 155.588L193.295 155.129L193.181 153.009L193.435 153.511ZM193.35 147.909L193.386 150.541L193.018 149.793L192.894 147.191L193.35 147.909ZM183.339 123.26C183.697 123.944 184.051 124.63 184.4 125.319L184.021 124.904C183.636 124.223 183.247 123.543 182.854 122.863L183.339 123.26ZM180.42 117.866C180.7 118.365 180.977 118.865 181.253 119.367L180.244 118.508L179.499 117.307L180.42 117.866ZM215.29 544.534C215.436 543.208 215.576 541.887 215.71 540.572C217.344 537.336 218.97 534.097 220.59 530.856C220.413 532.173 220.23 533.492 220.042 534.813C218.467 538.055 216.884 541.296 215.29 544.534ZM214.385 552.174C214.549 550.876 214.709 549.579 214.865 548.282C216.396 545.183 217.916 542.079 219.425 538.972C219.229 540.261 219.028 541.553 218.822 542.846C217.353 545.956 215.874 549.065 214.385 552.174ZM213.345 559.944C213.524 558.687 213.698 557.432 213.866 556.178C215.282 553.234 216.689 550.287 218.087 547.338C217.879 548.58 217.666 549.821 217.447 551.062C216.087 554.019 214.718 556.978 213.341 559.938L213.345 559.944ZM212.162 567.848C212.35 566.654 212.533 565.461 212.713 564.27C214.005 561.508 215.288 558.745 216.562 555.98C216.348 557.148 216.129 558.317 215.905 559.488C214.664 562.274 213.416 565.061 212.16 567.848L212.162 567.848ZM210.849 575.872C211.037 574.767 211.224 573.663 211.409 572.561C212.562 570.018 213.709 567.474 214.849 564.929C214.636 565.995 214.419 567.063 214.2 568.133C213.086 570.713 211.968 573.293 210.845 575.872L210.849 575.872ZM209.403 584.003C209.585 583.014 209.764 582.026 209.94 581.039C210.942 578.757 211.937 576.473 212.926 574.187C212.724 575.127 212.518 576.067 212.314 577.007C211.347 579.34 210.375 581.672 209.399 584.003L209.403 584.003ZM207.854 592.133L208.324 589.718C209.144 587.779 209.96 585.835 210.774 583.885C210.609 584.608 210.443 585.331 210.275 586.053C209.471 588.08 208.662 590.107 207.85 592.133L207.854 592.133ZM206.226 600.183L206.555 598.601C207.16 597.109 207.762 595.616 208.361 594.122L208.067 595.329C207.454 596.945 206.84 598.563 206.223 600.183L206.226 600.183ZM204.566 607.982L204.626 607.709L205.181 606.27L204.566 607.982ZM173.189 940.26L173.817 940.526C171.495 940.687 169.125 940.891 166.707 941.139L166.131 940.955C168.533 940.679 170.884 940.447 173.185 940.26L173.189 940.26ZM168.659 938.026C169.003 938.216 169.354 938.403 169.706 938.585C167.211 938.827 164.661 939.123 162.055 939.473C161.687 939.32 161.319 939.167 160.959 939.014C163.585 938.624 166.151 938.294 168.655 938.026L168.659 938.026ZM164.609 935.546C165.023 935.825 165.442 936.101 165.867 936.373C163.25 936.689 160.569 937.07 157.824 937.516C157.367 937.277 156.917 937.034 156.475 936.786C159.255 936.302 161.965 935.889 164.605 935.546L164.609 935.546ZM160.953 932.808C161.397 933.174 161.851 933.534 162.313 933.88C159.598 934.265 156.811 934.724 153.953 935.258C153.456 934.935 152.967 934.604 152.489 934.264C155.388 933.698 158.208 933.213 160.949 932.808L160.953 932.808ZM157.659 929.82C158.106 930.267 158.567 930.702 159.034 931.132C156.243 931.57 153.374 932.091 150.427 932.695C149.924 932.287 149.434 931.87 148.956 931.446C151.942 930.811 154.841 930.27 157.655 929.824L157.659 929.82ZM154.699 926.582C155.132 927.104 155.583 927.615 156.039 928.113C153.192 928.595 150.259 929.167 147.239 929.829C146.75 929.341 146.279 928.84 145.814 928.329C148.869 927.645 151.83 927.063 154.697 926.582L154.699 926.582ZM194.828 162.254L194.818 164.339L194.708 163.99L194.652 161.822L194.828 162.254ZM194.876 156.34L194.851 159.065L194.57 158.366L194.513 155.634L194.876 156.34ZM194.948 150.391L194.906 153.564L194.457 152.681L194.408 149.558L194.948 150.391ZM194.37 146.689L194.512 147.159L194.374 146.944L194.37 146.689ZM189.591 132.991C190.029 134.093 190.455 135.196 190.871 136.299C190.374 135.105 189.862 133.916 189.336 132.732L189.591 132.991ZM186.585 125.841C187.073 126.94 187.549 128.041 188.014 129.143L187.384 128.491C186.864 127.398 186.333 126.308 185.79 125.221L186.585 125.841ZM183.828 119.87C184.249 120.748 184.663 121.625 185.07 122.502L183.934 121.583C183.514 120.781 183.088 119.982 182.654 119.186L183.828 119.87ZM208.818 557.58C208.934 556.202 209.045 554.824 209.148 553.446C210.901 550.034 212.644 546.615 214.378 543.189C214.229 544.564 214.073 545.941 213.911 547.322C212.223 550.75 210.525 554.17 208.818 557.583L208.818 557.58ZM208.117 565.14C208.254 563.772 208.386 562.408 208.51 561.046C210.164 557.746 211.81 554.444 213.448 551.139C213.278 552.5 213.101 553.862 212.918 555.227C211.328 558.536 209.728 561.841 208.117 565.143L208.117 565.14ZM207.281 572.839C207.437 571.495 207.587 570.153 207.733 568.814C209.282 565.65 210.823 562.479 212.356 559.299C212.167 560.626 211.973 561.96 211.774 563.3C210.285 566.485 208.787 569.666 207.28 572.842L207.281 572.839ZM206.31 580.687C206.48 579.383 206.646 578.08 206.807 576.779C208.247 573.756 209.677 570.732 211.098 567.706C210.894 568.992 210.687 570.28 210.475 571.569C209.096 574.613 207.708 577.654 206.31 580.69L206.31 580.687ZM205.212 588.668C205.393 587.419 205.569 586.171 205.741 584.925C207.056 582.077 208.362 579.229 209.661 576.379C209.448 577.604 209.232 578.829 209.014 580.053C207.755 582.929 206.488 585.801 205.212 588.671L205.212 588.668ZM203.986 596.782C204.172 595.604 204.355 594.425 204.534 593.246C205.712 590.609 206.884 587.971 208.05 585.331C207.836 586.473 207.619 587.616 207.398 588.76C206.268 591.436 205.13 594.11 203.986 596.782ZM202.65 604.947C202.83 603.885 203.008 602.824 203.183 601.764C204.212 599.381 205.234 596.995 206.25 594.605C206.047 595.612 205.842 596.62 205.635 597.629C204.647 600.069 203.652 602.509 202.65 604.949L202.65 604.947ZM201.216 613.141L201.696 610.474C202.549 608.413 203.398 606.351 204.241 604.287L203.715 606.728C202.885 608.867 202.052 611.005 201.216 613.141ZM199.696 621.306L200.064 619.372C200.707 617.739 201.347 616.106 201.984 614.473L201.627 616.045C200.989 617.801 200.346 619.554 199.699 621.306L199.696 621.306ZM198.157 629.181L198.295 628.483L199.439 625.421L199.4 625.585L198.157 629.181ZM200.499 942.696L200.43 942.679C200.949 942.729 201.465 942.78 201.979 942.832L200.499 942.696ZM191.527 942.117L191.595 942.141C189.995 942.085 188.368 942.051 186.715 942.04C188.348 942.042 189.953 942.068 191.53 942.117L191.527 942.117ZM185.538 939.715C185.807 939.839 186.082 939.955 186.354 940.076C183.776 940.076 181.132 940.138 178.42 940.263L177.563 939.957C180.298 939.809 182.957 939.728 185.54 939.715L185.538 939.715ZM180.565 937.175C180.944 937.391 181.332 937.6 181.719 937.81C178.991 937.89 176.185 938.043 173.302 938.269C172.879 938.082 172.46 937.891 172.046 937.697C174.973 937.439 177.814 937.264 180.567 937.173L180.565 937.175ZM176.245 934.462C176.675 934.761 177.112 935.054 177.555 935.341C174.728 935.49 171.818 935.721 168.824 936.036C168.34 935.766 167.863 935.49 167.393 935.207C170.441 934.863 173.393 934.615 176.248 934.462L176.245 934.462ZM172.411 931.553C172.862 931.929 173.321 932.296 173.788 932.655C170.889 932.859 167.897 933.157 164.811 933.549C164.301 933.199 163.801 932.842 163.311 932.478C166.451 932.061 169.485 931.754 172.414 931.554L172.411 931.553ZM168.985 928.454C169.433 928.895 169.889 929.329 170.354 929.757C167.402 930.001 164.348 930.35 161.193 930.803C160.686 930.379 160.189 929.946 159.704 929.503C162.913 929.035 166.008 928.685 168.988 928.456L168.985 928.454ZM165.915 925.17C166.346 925.672 166.783 926.167 167.232 926.652C164.245 926.921 161.149 927.305 157.942 927.805C157.452 927.309 156.973 926.803 156.507 926.286C159.768 925.787 162.906 925.416 165.92 925.172L165.915 925.17ZM195.938 171.618L195.882 173.688L195.836 173.505L195.836 171.305L195.938 171.618ZM196.123 165.396L196.038 168.176L195.839 167.564L195.848 164.739L196.123 165.396ZM196.33 159.139L196.219 162.436L195.865 161.576L195.89 158.301L196.33 159.139ZM196.56 152.848L196.422 156.522L195.918 155.553L195.96 151.951L196.56 152.848ZM196 148.786L196.256 149.858L195.991 149.455L196 148.786ZM194.805 144.126L194.974 144.738L194.77 144.077L194.805 144.126ZM192.237 135.598C192.776 137.237 193.289 138.877 193.777 140.517L193.501 140.176C192.92 138.462 192.309 136.753 191.668 135.049L192.237 135.598ZM189.624 128.168C190.134 129.534 190.628 130.899 191.105 132.264L190.267 131.435C189.73 130.088 189.175 128.743 188.602 127.4L189.624 128.168ZM187.099 121.726C187.571 122.874 188.031 124.023 188.479 125.172L187.205 124.194C186.725 123.116 186.234 122.04 185.733 120.965L187.099 121.726ZM202.122 570.855C202.205 569.431 202.283 568.01 202.355 566.59C204.217 563.018 206.069 559.44 207.914 555.858C207.797 557.276 207.673 558.699 207.542 560.126C205.746 563.707 203.939 567.284 202.122 570.855ZM201.623 578.343C201.729 576.92 201.828 575.501 201.92 574.086C203.692 570.608 205.456 567.126 207.21 563.64C207.071 565.054 206.925 566.472 206.773 567.893C205.066 571.38 203.349 574.864 201.623 578.343ZM200.996 585.977C201.122 584.564 201.243 583.153 201.358 581.742C203.033 578.374 204.7 574.999 206.36 571.618C206.2 573.02 206.033 574.425 205.86 575.832C204.247 579.219 202.625 582.6 200.996 585.977ZM200.248 593.746C200.392 592.356 200.53 590.968 200.663 589.581C202.236 586.335 203.799 583.084 205.354 579.828C205.175 581.206 204.99 582.584 204.801 583.962C203.292 587.227 201.774 590.489 200.248 593.746ZM199.38 601.657C199.54 600.301 199.693 598.946 199.839 597.592C201.298 594.485 202.75 591.377 204.195 588.267C204.002 589.604 203.804 590.942 203.602 592.281C202.203 595.409 200.796 598.534 199.38 601.657ZM198.393 609.71C198.563 608.393 198.728 607.077 198.889 605.762C200.226 602.825 201.556 599.885 202.878 596.94C202.673 598.232 202.464 599.525 202.252 600.818C200.973 603.785 199.686 606.749 198.393 609.71ZM197.301 617.841C197.475 616.596 197.647 615.35 197.815 614.109C199.016 611.371 200.212 608.631 201.402 605.887C201.195 607.096 200.984 608.304 200.77 609.513C199.62 612.288 198.464 615.064 197.301 617.841ZM196.108 626.049C196.279 624.91 196.448 623.772 196.615 622.635C197.665 620.14 198.711 617.644 199.754 615.145C199.553 616.233 199.35 617.321 199.145 618.409C198.138 620.959 197.126 623.505 196.108 626.049ZM194.821 634.316L195.294 631.34C196.174 629.154 197.05 626.966 197.923 624.777C197.743 625.695 197.561 626.614 197.379 627.532C196.531 629.795 195.678 632.056 194.821 634.315L194.821 634.316ZM193.475 642.495L193.856 640.217C194.536 638.439 195.214 636.659 195.889 634.878L195.484 636.825C194.817 638.716 194.148 640.605 193.475 642.493L193.475 642.495ZM192.102 650.445L192.309 649.265L193.607 645.647L193.459 646.331L192.102 650.445ZM200.351 938.494C199.946 938.312 199.551 938.124 199.151 937.939C203.237 938.456 207.081 939.206 210.683 940.189C207.409 939.466 203.965 938.901 200.351 938.494ZM209.484 941.938L209.045 941.8C209.692 941.932 210.332 942.068 210.965 942.21C210.476 942.118 209.982 942.028 209.484 941.938ZM200.089 940.425L200.86 940.76C197.92 940.468 194.875 940.269 191.727 940.162C191.368 940.036 191.012 939.909 190.659 939.779C193.926 939.879 197.07 940.094 200.089 940.425ZM194.118 937.431C194.486 937.637 194.861 937.838 195.238 938.043C192.185 937.839 189.016 937.741 185.732 937.749C185.273 937.538 184.82 937.323 184.372 937.106C187.751 937.083 190.999 937.192 194.118 937.431ZM189.267 934.442C189.676 934.721 190.093 934.993 190.513 935.263C187.399 935.123 184.162 935.104 180.8 935.206C180.303 934.919 179.811 934.628 179.327 934.332C182.783 934.227 186.096 934.263 189.267 934.442ZM185.101 931.369C185.528 931.709 185.957 932.045 186.391 932.377C183.231 932.284 179.938 932.323 176.514 932.493C176.003 932.137 175.502 931.773 175.009 931.403C178.526 931.235 181.89 931.223 185.101 931.369ZM181.432 928.202C181.848 928.591 182.271 928.974 182.699 929.351C179.511 929.283 176.18 929.361 172.707 929.584C172.207 929.166 171.72 928.738 171.239 928.304C174.801 928.093 178.199 928.059 181.432 928.202ZM178.201 924.938C178.595 925.364 178.995 925.787 179.401 926.205C176.191 926.138 172.829 926.231 169.315 926.484C168.839 926.009 168.372 925.525 167.916 925.03C171.521 924.807 174.95 924.776 178.201 924.938ZM196.775 181.62L196.686 183.457L196.729 181.448L196.775 181.62ZM197.102 175.076L196.958 177.886L196.828 177.385L196.903 174.491L197.102 175.076ZM197.448 168.507L197.266 171.893L196.996 171.082L197.096 167.686L197.448 168.507ZM197.814 161.902L197.599 165.73L197.188 164.754L197.311 160.977L197.814 161.902ZM198.198 155.268L197.958 159.402L197.404 158.362L197.55 154.311L198.198 155.268ZM196.854 146.557C197.274 148.531 197.654 150.498 197.994 152.457L197.638 151.928L197.661 151.323L197.67 151.084L197.622 150.868C197.278 149.294 196.907 147.722 196.509 146.15L196.854 146.557ZM194.802 138.025C195.282 139.816 195.73 141.602 196.146 143.383L195.606 142.736C195.104 140.913 194.568 139.09 193.998 137.268L194.802 138.025ZM192.574 130.327C193.062 131.897 193.529 133.463 193.976 135.027L192.966 134.063C192.456 132.523 191.924 130.986 191.371 129.451L192.574 130.327ZM190.316 123.459C190.791 124.829 191.251 126.197 191.696 127.564L190.294 126.527C189.806 125.231 189.304 123.935 188.789 122.638L190.316 123.459ZM195.205 584.355C195.254 582.891 195.297 581.428 195.333 579.966C197.295 576.252 199.25 572.533 201.197 568.808C201.116 570.266 201.028 571.726 200.933 573.19C199.031 576.917 197.122 580.639 195.205 584.355ZM194.902 591.788C194.972 590.319 195.036 588.851 195.095 587.385C196.974 583.748 198.847 580.104 200.712 576.454C200.609 577.912 200.499 579.375 200.383 580.84C198.564 584.494 196.737 588.142 194.902 591.782L194.902 591.788ZM194.486 599.353C194.577 597.884 194.662 596.418 194.74 594.953C196.533 591.4 198.318 587.841 200.095 584.277C199.968 585.74 199.834 587.203 199.695 588.665C197.968 592.234 196.232 595.797 194.486 599.353ZM193.963 607.051C194.069 605.593 194.172 604.138 194.272 602.684C195.968 599.234 197.657 595.776 199.339 592.312C199.193 593.759 199.041 595.208 198.882 596.658C197.251 600.13 195.612 603.594 193.963 607.051ZM193.333 614.88C193.457 613.441 193.577 612.004 193.691 610.567C195.282 607.233 196.867 603.894 198.445 600.552C198.281 601.981 198.113 603.407 197.939 604.829C196.412 608.185 194.876 611.536 193.333 614.88ZM192.599 622.841C192.737 621.426 192.87 620.009 192.999 618.591C194.477 615.395 195.949 612.192 197.415 608.984C197.235 610.385 197.051 611.786 196.864 613.189C195.45 616.414 194.028 619.633 192.599 622.846L192.599 622.841ZM191.771 630.899C191.918 629.524 192.063 628.15 192.204 626.776C193.559 623.742 194.909 620.702 196.252 617.656C196.062 619.006 195.868 620.358 195.671 621.71C194.377 624.78 193.077 627.845 191.771 630.904L191.771 630.899ZM190.851 639.047C191.005 637.737 191.157 636.427 191.305 635.117C192.524 632.272 193.738 629.425 194.947 626.574C194.754 627.853 194.557 629.129 194.356 630.401C193.194 633.293 192.026 636.176 190.851 639.051L190.851 639.047ZM189.85 647.277C190.005 646.053 190.157 644.828 190.306 643.603C191.372 640.994 192.437 638.382 193.501 635.767C193.311 636.943 193.117 638.117 192.92 639.289C191.901 641.962 190.878 644.626 189.85 647.282L189.85 647.277ZM188.781 655.513C188.927 654.424 189.07 653.335 189.212 652.246C190.113 649.931 191.011 647.614 191.906 645.295L191.375 648.357C190.512 650.746 189.647 653.133 188.781 655.517L188.781 655.513ZM187.661 663.693L188.031 661.032C188.739 659.1 189.445 657.166 190.148 655.231L189.719 657.589C189.035 659.63 188.349 661.666 187.661 663.697L187.661 663.693ZM186.525 671.639L186.772 669.939L188.201 665.741L187.961 666.986C187.485 668.541 187.007 670.094 186.525 671.643L186.525 671.639ZM233.822 949.466C241.152 953.218 248.075 957.016 254.592 960.858C249.841 958.266 244.857 955.734 239.641 953.261C238.719 952.658 237.776 952.074 236.811 951.509C235.844 950.802 234.847 950.121 233.822 949.466ZM205.961 936.973L206.307 937.187C202.574 936.402 198.61 935.841 194.415 935.503C193.959 935.247 193.507 934.99 193.062 934.727C197.675 935.166 201.975 935.914 205.961 936.973ZM200.787 933.565L201.381 933.984C197.685 933.259 193.756 932.772 189.591 932.52C189.128 932.205 188.67 931.886 188.219 931.562C192.713 931.916 196.902 932.584 200.787 933.565ZM196.607 930.35C196.803 930.512 197.007 930.671 197.207 930.833C193.533 930.119 189.613 929.657 185.447 929.448C185.003 929.09 184.564 928.725 184.131 928.355C188.611 928.686 192.77 929.352 196.607 930.351L196.607 930.35ZM193.126 927.277C193.286 927.43 193.453 927.574 193.615 927.724C189.947 926.968 186.019 926.488 181.828 926.286C181.409 925.891 180.998 925.492 180.593 925.088C185.117 925.446 189.294 926.176 193.126 927.278L193.126 927.277ZM197.79 185.392L197.594 188.194L197.522 187.839L197.657 184.905L197.79 185.392ZM198.279 178.503L198.032 181.96L197.836 181.226L198.009 177.723L198.279 178.503ZM198.786 171.586L198.496 175.522L198.17 174.571L198.376 170.649L198.786 171.586ZM199.309 164.639L198.983 168.942L198.525 167.881C198.601 166.472 198.679 165.058 198.759 163.64L199.309 164.639ZM199.848 157.667L199.493 162.234L198.899 161.146L199.16 156.675L199.848 157.667ZM198.893 148.941C199.213 150.972 199.492 152.993 199.725 155.002L199.294 154.376L199.31 154.112L199.322 153.913L199.29 153.713C199.003 151.905 198.68 150.094 198.321 148.278L198.893 148.941ZM197.31 140.347C197.713 142.264 198.081 144.171 198.414 146.067L197.686 145.214C197.271 143.295 196.817 141.373 196.326 139.447L197.31 140.347ZM195.462 132.386C195.904 134.121 196.319 135.856 196.707 137.592L195.563 136.52C195.104 134.826 194.62 133.128 194.11 131.428L195.462 132.386ZM193.488 125.125C193.94 126.685 194.373 128.241 194.786 129.793L193.278 128.713C192.812 127.231 192.326 125.745 191.826 124.257L193.488 125.125ZM188.094 590.801C188.066 583.921 187.904 577.076 187.582 570.286C185.593 516.81 185.086 458.664 187.206 391.645C188.25 358.671 189.93 323.547 192.383 285.773C191.176 318.34 190.593 348.85 190.449 377.703C190.129 441.784 191.976 497.629 193.969 549.616L193.969 549.64C194.453 559.324 194.542 569.163 194.315 579.106C192.248 583.012 190.175 586.911 188.094 590.802L188.094 590.801ZM188.073 598.075C188.087 596.571 188.096 595.069 188.098 593.567C190.152 589.731 192.199 585.886 194.239 582.033C194.196 583.526 194.146 585.02 194.088 586.514C192.091 590.375 190.086 594.229 188.073 598.076L188.073 598.075ZM187.957 605.472C187.99 603.961 188.017 602.449 188.037 600.938C190.018 597.156 191.991 593.367 193.957 589.57C193.891 591.071 193.818 592.575 193.739 594.082C191.821 597.888 189.893 601.685 187.957 605.474L187.957 605.472ZM187.747 612.988C187.801 611.472 187.847 609.957 187.885 608.441C189.786 604.726 191.679 601.003 193.565 597.272C193.478 598.779 193.384 600.287 193.283 601.796C191.445 605.536 189.6 609.267 187.747 612.989L187.747 612.988ZM187.447 620.623C187.516 619.108 187.579 617.596 187.636 616.087C189.449 612.451 191.255 608.808 193.053 605.158C192.946 606.66 192.833 608.163 192.713 609.669C190.965 613.329 189.209 616.981 187.447 620.625L187.447 620.623ZM187.061 628.371C187.143 626.867 187.221 625.363 187.296 623.86C189.011 620.32 190.72 616.772 192.423 613.218C192.297 614.711 192.166 616.204 192.03 617.699C190.38 621.266 188.724 624.824 187.061 628.373L187.061 628.371ZM186.591 636.241C186.687 634.746 186.779 633.253 186.867 631.759C188.477 628.33 190.081 624.893 191.679 621.448C191.536 622.932 191.389 624.416 191.238 625.9C189.694 629.354 188.145 632.801 186.591 636.242L186.591 636.241ZM186.044 644.202C186.151 642.733 186.255 641.263 186.355 639.791C187.849 636.495 189.338 633.191 190.823 629.878C190.667 631.334 190.507 632.79 190.342 634.246C188.915 637.567 187.483 640.884 186.044 644.196L186.044 644.202ZM185.427 652.239C185.543 650.811 185.656 649.379 185.765 647.944C187.132 644.803 188.495 641.656 189.854 638.503C189.688 639.913 189.519 641.323 189.348 642.733C188.046 645.905 186.739 649.071 185.427 652.233L185.427 652.239ZM184.746 660.354C184.866 658.974 184.984 657.596 185.1 656.22C186.327 653.267 187.553 650.307 188.78 647.34C188.609 648.691 188.436 650.041 188.26 651.393C187.092 654.383 185.921 657.37 184.746 660.352L184.746 660.354ZM184.01 668.506C184.131 667.207 184.25 665.907 184.367 664.605C185.445 661.879 186.52 659.146 187.592 656.407C187.423 657.668 187.251 658.928 187.076 660.185C186.057 662.962 185.035 665.736 184.01 668.505L184.01 668.506ZM183.23 676.659L183.575 673.107C184.482 670.657 185.389 668.208 186.295 665.758L185.815 669.126C184.955 671.642 184.093 674.152 183.23 676.657L183.23 676.659ZM182.423 684.735L182.73 681.702C183.451 679.619 184.171 677.531 184.89 675.44L184.478 678.208C183.795 680.385 183.109 682.56 182.423 684.733L182.423 684.735ZM181.609 692.604L181.839 690.402L183.351 685.63L183.075 687.428L181.609 692.604ZM180.834 699.937L180.914 699.201L181.634 696.681L181.619 696.773L180.834 699.937ZM198.189 196.365L197.949 199.12L197.918 198.926L198.111 196.006L198.189 196.365ZM198.829 189.148L198.518 192.638L198.383 191.998L198.628 188.429L198.829 189.148ZM199.48 181.912L199.115 185.949L198.865 185.031L199.152 180.98L199.48 181.912ZM200.146 174.651L199.737 179.09L199.364 178.019L199.684 173.611L200.146 174.651ZM200.825 167.366L200.381 172.112L199.881 170.985L200.234 166.302L200.825 167.366ZM201.518 160.056L201.045 165.042L200.416 163.912L200.794 159.027L201.518 160.056ZM200.944 151.285C201.163 153.376 201.338 155.452 201.468 157.511L200.969 156.798L200.974 156.73L200.957 156.562C200.749 154.532 200.497 152.491 200.2 150.438L200.944 151.285ZM199.797 142.592C200.117 144.621 200.399 146.636 200.642 148.636L199.772 147.638C199.448 145.632 199.084 143.616 198.681 141.59L199.797 142.592ZM198.318 134.372C198.698 136.264 199.05 138.145 199.372 140.015L198.118 138.879C197.725 137.042 197.303 135.202 196.852 133.36L198.318 134.372ZM196.642 126.738C197.053 128.473 197.442 130.198 197.808 131.913L196.208 130.8C195.781 129.151 195.336 127.497 194.872 125.84L196.642 126.738ZM180.621 604.696C180.518 600.149 180.367 595.611 180.168 591.081C178.178 536.099 179.011 475.618 182.933 405.567C184.716 373.722 187.138 339.887 190.225 303.696C188.374 334.683 187.051 363.864 186.175 391.527C184.05 458.649 184.558 516.877 186.551 570.425L186.551 570.445C186.899 577.816 187.059 585.251 187.062 592.733C184.92 596.73 182.772 600.717 180.619 604.695L180.621 604.696ZM180.748 611.994C180.729 610.446 180.705 608.899 180.676 607.354C182.809 603.418 184.936 599.472 187.057 595.516C187.049 597.047 187.035 598.575 187.015 600.1C184.931 604.074 182.841 608.037 180.747 611.991L180.748 611.994ZM180.802 619.397C180.798 617.839 180.789 616.282 180.776 614.724C182.845 610.822 184.911 606.908 186.971 602.981C186.944 604.519 186.91 606.061 186.87 607.605C184.853 611.55 182.83 615.48 180.8 619.395L180.802 619.397ZM180.786 626.888C180.796 625.326 180.803 623.765 180.804 622.203C182.803 618.342 184.797 614.471 186.787 610.59C186.74 612.138 186.687 613.687 186.627 615.237C184.685 619.13 182.738 623.013 180.784 626.886L180.786 626.888ZM180.706 634.477C180.73 632.914 180.749 631.352 180.764 629.79C182.684 625.99 184.598 622.178 186.507 618.356C186.442 619.903 186.372 621.453 186.298 623.005C184.439 626.838 182.574 630.661 180.703 634.475L180.706 634.477ZM180.56 642.152C180.595 640.593 180.626 639.034 180.653 637.475C182.482 633.746 184.308 630.008 186.129 626.26C186.047 627.806 185.961 629.354 185.871 630.904C184.107 634.664 182.337 638.413 180.56 642.152ZM180.363 649.915C180.408 648.361 180.449 646.807 180.487 645.255C182.217 641.616 183.943 637.968 185.666 634.31C185.57 635.853 185.469 637.397 185.365 638.943C183.704 642.613 182.038 646.271 180.366 649.917L180.363 649.915ZM180.115 657.749C180.168 656.209 180.218 654.669 180.266 653.127C181.887 649.599 183.503 646.06 185.116 642.51C185.009 644.041 184.897 645.572 184.778 647.103C183.23 650.662 181.676 654.211 180.117 657.751L180.115 657.749ZM179.823 665.637C179.882 664.124 179.94 662.61 179.995 661.095C181.495 657.694 182.991 654.284 184.485 650.866C184.366 652.37 184.243 653.874 184.117 655.378C182.69 658.808 181.26 662.229 179.825 665.639L179.823 665.637ZM179.491 673.598C179.555 672.116 179.618 670.633 179.68 669.148C181.048 665.903 182.413 662.65 183.776 659.388C183.649 660.857 183.519 662.327 183.387 663.795C182.093 667.069 180.795 670.335 179.493 673.594L179.491 673.598ZM179.131 681.579L179.328 677.274C180.552 674.212 181.774 671.145 182.995 668.071C182.862 669.488 182.729 670.903 182.595 672.315C181.443 675.41 180.289 678.496 179.133 681.575L179.131 681.579ZM178.747 689.573L178.946 685.471C180.012 682.634 181.079 679.79 182.146 676.939L181.746 680.949C180.749 683.827 179.751 686.7 178.749 689.568L178.747 689.573ZM178.351 697.534L178.542 693.728C179.439 691.164 180.336 688.593 181.233 686.016L180.855 689.69C180.023 692.301 179.189 694.912 178.353 697.523L178.351 697.534ZM177.951 705.403L178 704.415L178.121 702.038C178.832 699.82 179.545 697.595 180.258 695.363L179.923 698.515C179.269 700.811 178.613 703.103 177.955 705.392L177.951 705.403ZM177.565 713.058L177.699 710.406L179.219 705.121L178.969 707.441L177.565 713.058ZM177.211 720.226L177.28 718.782L178.096 715.524L177.997 716.435L177.55 718.591L177.211 720.226ZM198.288 207.982L198.013 210.63L198.253 207.778L198.288 207.982ZM199.079 200.437L198.712 203.926L198.628 203.407L198.939 199.808L199.079 200.437ZM199.879 192.869L199.444 196.969L199.259 196.121L199.625 191.977L199.879 192.869ZM200.693 185.286L200.202 189.853L199.907 188.806L200.317 184.25L200.693 185.286ZM201.52 177.682L200.986 182.598L200.574 181.45L201.018 176.584L201.52 177.682ZM202.355 170.059L201.786 175.245L201.252 174.066L201.727 168.961L202.355 170.059ZM203.2 162.416L202.604 167.804L201.946 166.645L202.447 161.365L203.2 162.416ZM203.006 153.595C203.126 155.748 203.199 157.881 203.224 159.993L202.598 159.114C202.491 156.965 202.335 154.799 202.13 152.617L203.006 153.595ZM202.276 144.783C202.508 146.917 202.699 149.031 202.848 151.125L201.865 150.022C201.634 147.928 201.362 145.822 201.046 143.702L202.276 144.783ZM201.162 136.302C201.474 138.335 201.751 140.349 201.994 142.347L200.653 141.16C200.333 139.201 199.981 137.229 199.598 135.246L201.162 136.302ZM199.784 128.305C200.144 130.197 200.479 132.078 200.788 133.948L199.113 132.809C198.742 131.008 198.346 129.199 197.926 127.381L199.784 128.305ZM173.008 618.68C172.928 616.417 172.842 614.153 172.749 611.887C170.759 555.394 172.929 492.576 178.652 419.476C181.038 389.009 184.042 356.745 187.619 322.42C185.271 351.546 183.369 379.119 181.9 405.351C177.97 475.533 177.138 536.128 179.132 591.222L179.132 591.237C179.358 596.324 179.521 601.425 179.62 606.539C177.42 610.602 175.216 614.65 173.007 618.685L173.008 618.68ZM173.248 626.073C173.202 624.472 173.152 622.87 173.099 621.267C175.293 617.259 177.484 613.239 179.672 609.206C179.698 610.772 179.718 612.339 179.733 613.908C177.572 617.979 175.409 622.036 173.243 626.076L173.248 626.073ZM173.445 633.534C173.407 631.926 173.365 630.317 173.322 628.705C175.469 624.7 177.613 620.682 179.755 616.65C179.764 618.231 179.769 619.813 179.769 621.396C177.662 625.456 175.552 629.504 173.44 633.538L173.445 633.534ZM173.605 641.045C173.574 639.434 173.541 637.823 173.505 636.212C175.594 632.222 177.68 628.221 179.763 624.209C179.757 625.795 179.748 627.382 179.734 628.971C177.692 633.01 175.648 637.036 173.6 641.049L173.605 641.045ZM173.735 648.617C173.711 647.008 173.684 645.398 173.655 643.788C175.673 639.834 177.689 635.866 179.703 631.883C179.685 633.476 179.661 635.067 179.634 636.659C177.669 640.661 175.701 644.648 173.731 648.622L173.735 648.617ZM173.837 656.234L173.775 651.419C175.712 647.516 177.647 643.6 179.579 639.67C179.547 641.261 179.512 642.852 179.475 644.442C177.596 648.388 175.716 652.32 173.834 656.237L173.837 656.234ZM173.917 663.904L173.868 659.1C175.712 655.265 177.554 651.418 179.393 647.559C179.35 649.151 179.305 650.743 179.256 652.334C177.477 656.207 175.697 660.065 173.915 663.909L173.917 663.904ZM173.983 671.6L173.943 666.83C175.682 663.085 177.419 659.327 179.153 655.557C179.1 657.141 179.045 658.723 178.989 660.303C177.321 664.086 175.652 667.853 173.981 671.605L173.983 671.6ZM174.037 679.315L174 674.609C175.621 670.974 177.241 667.327 178.859 663.667C178.799 665.236 178.737 666.804 178.672 668.368C177.129 672.032 175.583 675.682 174.035 679.32L174.037 679.315ZM174.087 687.062L174.074 685.05L174.057 682.418C175.547 678.915 177.038 675.402 178.529 671.877C178.463 673.426 178.395 674.972 178.325 676.516C176.912 680.042 175.498 683.558 174.085 687.066L174.087 687.062ZM174.139 694.804L174.107 690.254C175.458 686.913 176.808 683.56 178.157 680.195L177.944 684.736C176.675 688.107 175.406 691.465 174.137 694.809L174.139 694.804ZM174.199 702.537L174.163 698.119C175.36 694.965 176.557 691.801 177.755 688.626L177.539 693.026C176.424 696.211 175.31 699.383 174.198 702.542L174.199 702.537ZM174.273 710.227L174.23 705.991C175.263 703.064 176.297 700.126 177.331 697.177L177.119 701.375C176.168 704.339 175.219 707.291 174.271 710.232L174.273 710.227ZM174.369 717.848L174.316 713.868L176.891 705.868L176.694 709.777L174.369 717.848ZM174.49 725.35C174.467 724.152 174.447 722.951 174.428 721.748L174.699 720.812L176.444 714.756L176.272 718.225L175.952 719.499L174.49 725.35ZM174.64 732.633C174.618 731.629 174.593 730.625 174.572 729.616L175.996 723.919L175.865 726.711L174.64 732.633ZM174.815 739.472L174.76 737.451L175.551 733.608L175.483 735.214L174.815 739.472ZM198.08 220.276L198.06 220.447L198.078 220.262L198.08 220.276ZM199.03 212.388L198.612 215.848L198.569 215.481L198.942 211.874L199.03 212.388ZM199.99 204.49L199.488 208.623L199.361 207.858L199.802 203.649L199.99 204.49ZM200.956 196.571L200.387 201.232L200.162 200.226L200.658 195.55L200.956 196.571ZM201.93 188.642L201.308 193.704L200.977 192.557L201.515 187.522L201.93 188.642ZM202.912 180.696L202.249 186.055L201.803 184.844L202.378 179.541L202.912 180.696ZM203.902 172.735L203.205 178.334L202.645 177.109L203.248 171.598L203.902 172.735ZM204.892 164.751L204.888 164.843L204.177 170.535L203.494 169.355L204.121 163.69L204.892 164.751ZM205.086 155.884C205.106 158.103 205.077 160.291 204.997 162.45L204.266 161.441C204.266 159.254 204.212 157.043 204.106 154.809L205.086 155.884ZM204.754 146.931C204.897 149.165 204.994 151.374 205.047 153.558L203.975 152.378C203.841 150.202 203.661 148.007 203.437 145.795L204.754 146.931ZM203.995 138.186C204.23 140.345 204.429 142.489 204.592 144.616L203.178 143.391C202.94 141.312 202.666 139.219 202.356 137.114L203.995 138.186ZM202.93 129.839C203.229 131.88 203.498 133.905 203.736 135.915L201.999 134.759C201.693 132.82 201.359 130.866 200.996 128.897L202.93 129.839ZM165.331 632.652C163.343 574.655 166.85 509.508 174.37 433.391C177.216 404.599 180.64 374.229 184.554 342.078C181.859 369.036 179.542 394.687 177.623 419.185C171.889 492.424 169.716 555.383 171.712 612.028L171.712 612.04C171.828 614.852 171.933 617.662 172.027 620.468C169.795 624.547 167.562 628.611 165.327 632.66L165.331 632.652ZM165.618 640.25L165.426 635.213C167.657 631.177 169.886 627.126 172.115 623.062C172.168 624.682 172.216 626.3 172.259 627.917C170.044 632.045 167.829 636.157 165.615 640.253L165.618 640.25ZM165.913 647.855L165.717 642.825C167.922 638.75 170.126 634.66 172.331 630.555C172.373 632.18 172.412 633.807 172.449 635.434C170.269 639.591 168.089 643.732 165.91 647.858L165.913 647.855ZM166.219 655.454L166.016 650.445C168.18 646.35 170.344 642.241 172.507 638.116C172.542 639.749 172.574 641.38 172.604 643.008C170.475 647.174 168.345 651.324 166.216 655.458L166.219 655.454ZM166.539 663.054L166.326 658.069C168.434 653.98 170.541 649.875 172.646 645.754C172.673 647.387 172.7 649.02 172.726 650.653C170.664 654.804 168.601 658.939 166.539 663.057L166.539 663.054ZM166.88 670.642C166.803 668.997 166.728 667.346 166.655 665.691C168.691 661.627 170.727 657.545 172.763 653.443L172.823 658.342C170.841 662.459 168.86 666.56 166.88 670.645L166.88 670.642ZM167.246 678.223C167.164 676.59 167.084 674.951 167.006 673.304C168.954 669.29 170.903 665.258 172.854 661.21L172.901 666.093C171.015 670.156 169.129 674.2 167.245 678.226L167.246 678.223ZM167.639 685.776C167.551 684.154 167.465 682.529 167.382 680.901C169.229 676.959 171.076 673 172.925 669.022L172.963 673.888C171.187 677.869 169.412 681.835 167.639 685.785L167.639 685.776ZM168.064 693.294C167.97 691.696 167.878 690.093 167.788 688.486C169.519 684.639 171.252 680.775 172.988 676.893L173.019 681.714C171.365 685.593 169.713 689.454 168.063 693.297L168.064 693.294ZM168.527 700.796C168.425 699.218 168.326 697.636 168.229 696.05C169.829 692.324 171.431 688.58 173.036 684.819L173.036 685.081L173.066 689.596C171.551 693.341 170.037 697.072 168.526 700.789L168.527 700.796ZM169.028 708.241C168.919 706.691 168.812 705.136 168.708 703.577C170.165 699.994 171.625 696.396 173.087 692.782L173.122 697.489C171.754 701.085 170.389 704.668 169.027 708.238L169.028 708.241ZM169.575 715.636C169.457 714.119 169.343 712.6 169.232 711.077C170.533 707.666 171.839 704.24 173.147 700.799L173.187 705.412L169.575 715.636ZM170.169 722.957C170.044 721.484 169.922 720.008 169.803 718.528L173.222 708.854L173.272 713.338L171.151 719.912L170.169 722.957ZM170.809 730.2C170.677 728.781 170.548 727.359 170.423 725.935L172.031 720.953L173.316 716.973C173.335 718.41 173.357 719.849 173.379 721.282L170.809 730.2ZM171.504 737.33C171.367 735.989 171.234 734.645 171.104 733.298L173.446 725.165C173.47 726.518 173.496 727.87 173.526 729.219C172.847 731.932 172.173 734.635 171.506 737.327L171.504 737.33ZM172.247 744.308C172.11 743.071 171.975 741.832 171.843 740.591L173.616 733.443C173.647 734.681 173.678 735.917 173.71 737.15C173.219 739.548 172.732 741.933 172.249 744.305L172.247 744.308ZM173.031 751.054C172.9 749.979 172.772 748.902 172.647 747.824C173.043 745.863 173.443 743.895 173.847 741.92C173.879 742.972 173.911 744.024 173.946 745.072C173.636 747.07 173.332 749.063 173.032 751.051L173.031 751.054ZM173.831 757.383L173.52 754.986C173.728 753.587 173.939 752.187 174.151 750.785L174.24 752.966C174.1 754.439 173.964 755.91 173.831 757.38L173.831 757.383ZM174.56 762.755L174.467 762.099L174.592 760.661L174.602 760.842L174.56 762.755ZM198.672 225.006L198.214 228.401L198.197 228.205L198.624 224.627L198.672 225.006ZM199.792 216.762L199.228 220.909L199.148 220.257L199.658 216.006L199.792 216.762ZM200.912 208.515L200.272 213.238L200.108 212.287L200.686 207.521L200.912 208.515ZM202.042 200.247L201.334 205.427L201.074 204.292L201.705 199.119L202.042 200.247ZM203.176 191.98L202.418 197.51L202.054 196.277L202.727 190.792L203.176 191.98ZM204.32 183.686L203.52 189.481L203.045 188.215L203.752 182.494L204.32 183.686ZM205.462 175.395L204.635 181.395L204.046 180.142L204.78 174.239L205.462 175.395ZM206.591 167.066L206.547 167.536L205.759 173.244L205.054 172.043L205.809 166.005L206.591 167.066ZM207.184 158.162C207.105 160.443 206.973 162.689 206.79 164.898L205.98 163.796C206.08 161.564 206.129 159.303 206.126 157.015L207.184 158.162ZM207.237 149.049C207.285 151.38 207.288 153.68 207.243 155.951L206.106 154.717C206.068 152.461 205.984 150.18 205.853 147.872L207.237 149.049ZM206.837 140.044C206.991 142.33 207.105 144.59 207.178 146.822L205.709 145.569C205.556 143.38 205.365 141.169 205.134 138.936L206.837 140.044ZM206.074 131.35C206.307 133.536 206.511 135.704 206.679 137.849L204.889 136.677C204.652 134.601 204.383 132.509 204.082 130.4L206.074 131.35ZM210.666 140.418C210.583 138.087 210.463 135.73 210.305 133.349C214.791 135.45 219.357 137.541 223.948 139.643C265.91 158.855 309.965 179.028 312.674 216.751C315.874 261.361 306.222 312.562 288.656 366.771C302.058 320.29 309.056 276.328 306.282 237.294C303.592 197.805 265.061 174.064 227.11 150.671C221.577 147.26 216.055 143.859 210.662 140.418L210.666 140.418ZM210.793 149.859C210.82 147.456 210.793 145.015 210.732 142.549C216.006 145.908 221.395 149.23 226.798 152.56C264.439 175.758 302.657 199.312 305.259 237.556C308.414 281.967 298.762 332.921 281.358 386.769C294.61 340.645 301.593 296.938 298.869 258.111C296.281 218.111 262.641 191.335 228.662 164.292C222.654 159.517 216.64 154.728 210.788 149.859L210.793 149.859ZM210.423 159.351C210.583 156.938 210.693 154.488 210.753 152.003C216.494 156.77 222.385 161.458 228.265 166.138C261.963 192.958 295.326 219.515 297.838 258.364L297.838 258.376C300.939 302.531 291.322 353.162 274.153 406.551C287.193 360.871 294.118 317.503 291.448 278.94C288.95 238.399 259.522 208.906 229.208 178.526C222.902 172.201 216.56 165.844 210.418 159.347L210.423 159.351ZM209.517 168.563C209.824 166.233 210.075 163.863 210.269 161.452C216.31 167.832 222.538 174.075 228.73 180.283C258.792 210.413 287.981 239.655 290.415 279.154L290.415 279.17C293.431 322.644 284.08 372.392 267.482 424.736L267.297 425.195C279.892 380.376 286.623 337.736 284.027 299.74C281.61 258.67 255.895 226.729 228.994 193.312C222.466 185.199 215.863 176.995 209.512 168.559L209.517 168.563ZM208.218 177.367L209.2 170.76L209.225 170.592C215.491 178.899 221.993 186.974 228.429 194.971C255.12 228.131 280.634 259.823 282.997 299.959L282.997 299.979C285.775 340.604 277.742 386.694 263.23 435.139C262.84 436.082 262.448 437.025 262.055 437.968C273.168 396.159 279.016 356.316 276.608 320.554C274.268 279.001 251.888 244.862 228.19 208.706C221.494 198.49 214.694 188.108 208.213 177.362L208.218 177.367ZM206.902 186.136L207.902 179.473C214.286 190.029 220.968 200.226 227.55 210.264C251.07 246.149 273.28 280.039 275.578 320.762L275.578 320.782C278.128 358.597 271.315 401.128 258.764 445.775C258.131 447.257 257.491 448.742 256.852 450.225C266.444 411.602 271.398 374.723 269.187 341.372C266.922 299.423 247.587 263.348 226.902 224.768C220.197 212.25 213.345 199.457 206.897 186.131L206.902 186.136ZM205.587 194.893L206.275 190.311L206.56 188.367C212.898 201.406 219.608 213.924 226.182 226.182C246.72 264.504 265.933 300.34 268.16 341.568L268.16 341.591C270.485 376.626 264.8 415.67 254.09 456.591C253.261 458.488 252.425 460.386 251.582 462.287C259.7 426.899 263.785 393.038 261.77 362.16C259.577 319.963 243.038 282.242 225.222 241.592C218.626 226.543 211.856 211.097 205.582 194.889L205.587 194.893ZM204.274 203.635L205.226 197.294C211.386 213.098 217.99 228.174 224.426 242.867C242.142 283.276 258.586 320.794 260.742 362.377L260.742 362.4C262.848 394.704 258.192 430.359 249.19 467.665C248.181 469.917 247.164 472.171 246.138 474.427C252.874 442.244 256.171 411.369 254.354 382.966C252.241 340.711 238.295 301.652 223.191 259.356C216.819 241.517 210.24 223.097 204.27 203.631L204.274 203.635ZM202.966 212.362L203.881 206.267C209.734 225.184 216.132 243.11 222.336 260.482C237.36 302.56 251.237 341.42 253.32 383.176L253.32 383.203C255.217 412.823 251.473 445.224 244.03 479.043C242.872 481.567 241.705 484.093 240.53 486.62C245.986 457.605 248.558 429.689 246.93 403.78C244.904 361.722 233.374 321.756 220.844 278.321C214.8 257.344 208.514 235.556 202.96 212.351L202.966 212.362ZM201.661 221.069L202.527 215.292C207.967 237.767 214.063 258.906 219.942 279.288C232.422 322.547 243.906 362.353 245.906 403.996L245.906 404.023C247.598 431.001 244.677 460.227 238.658 490.65C237.362 493.415 236.055 496.181 234.738 498.948C239.03 473.033 240.953 448.024 239.517 424.603C237.591 383.139 228.313 342.791 218.218 298.892C212.567 274.318 206.664 248.643 201.656 221.058L201.661 221.069ZM200.36 229.754L201.166 224.373C206.078 251.012 211.792 275.877 217.268 299.685C227.331 343.447 236.581 383.667 238.488 424.794L238.488 424.82C239.982 449.197 237.784 475.354 233.043 502.496C231.616 505.48 230.176 508.464 228.723 511.45C231.979 488.56 233.349 466.388 232.098 445.435C230.294 405.152 223.106 365.152 215.298 321.684C210.126 292.912 204.685 262.62 200.355 229.743L200.36 229.754ZM199.064 238.429L199.794 233.548C204.056 265.218 209.314 294.489 214.317 322.328C222.106 365.675 229.277 405.562 231.067 445.597L231.067 445.629C232.371 467.445 230.799 490.628 227.191 514.602C225.639 517.785 224.075 520.968 222.499 524.151C224.855 504.181 225.757 484.761 224.682 466.243C223.027 428.046 217.765 389.49 212.072 347.772C207.448 313.908 202.545 277.942 199.059 238.418L199.064 238.429ZM197.773 247.069L198.406 242.83C201.87 280.828 206.603 315.525 211.071 348.268C216.751 389.889 222.001 428.354 223.648 466.407L223.648 466.433C224.768 485.737 223.72 506.058 221.088 526.988C219.42 530.346 217.74 533.701 216.048 537.054C217.643 519.907 218.163 503.167 217.256 487.053C215.802 452.39 212.278 416.994 208.497 379.024C204.486 338.678 200.181 295.423 197.768 247.059L197.773 247.069ZM196.486 255.713L196.998 252.278C199.455 298.697 203.606 340.405 207.487 379.391C211.262 417.289 214.78 452.621 216.23 487.21L216.23 487.237C217.18 504.078 216.55 521.629 214.754 539.635C212.976 543.151 211.188 546.665 209.388 550.178C210.366 535.753 210.588 521.602 209.844 507.866C208.686 479.359 206.662 450.056 204.524 419.094C201.134 370.012 197.457 316.76 196.48 255.703L196.486 255.713ZM195.206 264.287L195.555 261.945C196.675 320.503 200.218 371.87 203.495 419.344C205.627 450.235 207.647 479.472 208.806 508.005L208.806 508.034C209.59 522.445 209.296 537.334 208.171 552.532C206.289 556.196 204.397 559.856 202.496 563.511C202.999 551.699 203.014 540.061 202.416 528.666C201.749 511.735 200.929 494.127 200.086 476C197.207 414.012 194.036 345.814 195.206 264.284L195.206 264.287ZM193.931 272.913L194.07 271.974C193.2 350.186 196.266 416.091 199.061 476.165C199.894 494.068 200.703 511.454 201.387 528.814L201.387 528.837C202.017 540.868 201.956 553.18 201.355 565.7C199.378 569.494 197.39 573.282 195.394 577.063C195.564 567.766 195.455 558.558 195.001 549.479C193.011 497.501 191.161 441.676 191.481 377.721C191.648 345.105 192.374 310.359 193.93 272.909L193.931 272.913ZM157.743 646.331C155.849 568.196 165.317 476.392 181.006 362.792C178.132 387.215 175.58 410.624 173.35 433.02C165.809 509.325 162.296 574.646 164.293 632.831L164.293 632.839L164.352 634.411C162.148 638.402 159.945 642.375 157.743 646.331ZM157.988 654.292C157.927 652.51 157.862 650.728 157.81 648.934C160.022 644.963 162.235 640.976 164.45 636.974L164.643 642.046C162.424 646.147 160.205 650.231 157.988 654.297L157.988 654.292ZM158.303 662.188C158.223 660.424 158.143 658.667 158.075 656.883C160.295 652.812 162.518 648.723 164.742 644.618L164.941 649.686C162.727 653.874 160.515 658.042 158.303 662.192L158.303 662.188ZM158.689 670.005C158.59 668.26 158.509 666.496 158.427 664.732C160.631 660.597 162.837 656.443 165.045 652.272L165.252 657.324C163.062 661.573 160.875 665.803 158.689 670.016L158.689 670.005ZM159.182 677.689C159.064 675.97 158.958 674.24 158.85 672.513C161.017 668.339 163.188 664.147 165.362 659.936C165.433 661.617 165.506 663.294 165.58 664.967C163.445 669.231 161.312 673.473 159.182 677.694L159.182 677.689ZM159.754 685.278C159.618 683.594 159.47 681.919 159.345 680.226C161.459 676.041 163.576 671.834 165.698 667.603C165.773 669.273 165.85 670.94 165.929 672.605C163.868 676.852 161.81 681.078 159.754 685.283L159.754 685.278ZM160.399 692.798C160.244 691.13 160.096 689.454 159.955 687.772C161.985 683.62 164.018 679.448 166.056 675.256C166.137 676.919 166.22 678.578 166.303 680.234C164.332 684.445 162.364 688.635 160.4 692.803L160.399 692.798ZM161.128 700.216C160.955 698.57 160.799 696.906 160.64 695.245C162.568 691.153 164.502 687.04 166.441 682.905C166.527 684.556 166.616 686.202 166.707 687.846C164.843 691.992 162.984 696.117 161.128 700.221L161.128 700.216ZM161.961 707.482C161.769 705.877 161.583 704.266 161.401 702.65C163.214 698.636 165.034 694.604 166.861 690.556C166.954 692.189 167.049 693.816 167.148 695.439C165.413 699.476 163.684 703.492 161.961 707.487L161.961 707.482ZM162.869 714.678C162.659 713.101 162.445 711.527 162.248 709.939C163.931 706.037 165.619 702.114 167.314 698.171C167.413 699.784 167.516 701.395 167.623 703.004C166.032 706.922 164.448 710.817 162.869 714.687L162.869 714.678ZM163.847 721.794C163.619 720.237 163.407 718.667 163.196 717.095C164.727 713.343 166.265 709.57 167.809 705.775C167.916 707.368 168.027 708.958 168.144 710.544L164.687 719.595L163.847 721.794ZM164.931 728.755C164.685 727.238 164.451 725.712 164.219 724.187L165.52 720.779L168.348 713.376C168.465 714.942 168.586 716.505 168.711 718.064L168.1 719.79L164.931 728.755ZM166.092 735.602C165.834 734.134 165.563 732.676 165.315 731.202L168.947 720.932C169.073 722.463 169.203 723.994 169.336 725.525C168.247 728.908 167.165 732.27 166.092 735.611L166.092 735.602ZM167.321 742.366C167.047 740.932 166.781 739.491 166.521 738.045C167.539 734.874 168.564 731.687 169.598 728.484C169.733 729.977 169.872 731.467 170.014 732.953C169.109 736.113 168.212 739.254 167.321 742.375L167.321 742.366ZM168.631 748.986C168.347 747.608 168.079 746.205 167.806 744.814C168.635 741.901 169.471 738.973 170.316 736.03C170.46 737.47 170.608 738.904 170.759 740.334C170.04 743.239 169.331 746.126 168.631 748.995L168.631 748.986ZM170.022 755.416C169.733 754.114 169.441 752.813 169.159 751.509C169.799 748.873 170.448 746.226 171.106 743.567C171.256 744.938 171.41 746.305 171.567 747.669C171.045 750.27 170.529 752.854 170.022 755.423L170.022 755.416ZM171.457 761.722C171.171 760.508 170.882 759.295 170.606 758.075C171.057 755.777 171.515 753.47 171.979 751.155C172.132 752.425 172.288 753.691 172.447 754.955C172.111 757.221 171.781 759.476 171.457 761.722ZM172.933 767.775C172.659 766.689 172.4 765.592 172.133 764.501C172.4 762.62 172.672 760.731 172.951 758.836C173.098 759.951 173.249 761.064 173.403 762.177C173.24 764.05 173.084 765.916 172.933 767.775ZM174.395 773.339C174.176 772.525 173.955 771.71 173.739 770.889C173.846 769.535 173.955 768.177 174.067 766.814C174.19 767.652 174.315 768.489 174.441 769.325C174.422 770.669 174.406 772.007 174.395 773.339ZM175.693 778.186C175.599 777.848 175.515 777.505 175.42 777.167L175.426 775.6L175.559 776.412C175.6 777.004 175.648 777.595 175.693 778.186ZM173.459 774.547C173.762 775.672 174.055 776.805 174.367 777.926C174.137 852.205 185.615 914.853 244.804 946.488C264.644 960.449 281.623 973.683 296.039 986.446C280.017 972.561 260.392 958.69 236.679 944.595L236.649 944.577L236.635 944.577C173.703 919.016 167.587 853.502 173.459 774.547ZM171.682 767.717C171.994 768.978 172.312 770.234 172.636 771.485C166.311 852.654 171.813 920.268 236.404 946.512C250.501 954.891 263.139 963.185 274.433 971.443C261.153 962.226 245.815 953.285 228.207 944.586L228.186 944.574L228.158 944.574C226.964 944.219 225.799 943.842 224.646 943.458C223.39 942.582 222.083 941.755 220.726 940.976C218.972 939.63 217.107 938.396 215.131 937.274C213.357 935.894 211.464 934.638 209.451 933.506C204.99 929.993 199.75 927.312 193.679 925.529C167.217 900.598 162.927 858.854 166.985 808.867C168.055 795.673 169.705 781.905 171.68 767.717L171.682 767.717ZM170.037 760.981C170.347 762.302 170.677 763.608 170.997 764.922C168.871 779.97 167.095 794.569 165.957 808.555C161.962 857.772 165.913 899.118 190.517 924.694C186.845 923.84 182.889 923.295 178.648 923.059C161.415 904.179 156.795 875.349 158.735 840.433C160.073 816.427 164.487 789.519 170.037 760.987L170.037 760.981ZM168.517 754.145C168.824 755.546 169.127 756.947 169.444 758.34C163.69 787.727 159.08 815.46 157.704 840.217C155.776 874.886 160.143 903.68 176.451 922.96C173.234 922.868 169.855 922.952 166.314 923.214C153.674 908.283 149.42 886.554 150.3 860.149C151.311 829.923 158.984 793.514 168.519 754.151L168.517 754.145ZM167.095 747.309C167.382 748.771 167.667 750.235 167.975 751.685C158.215 791.858 150.295 829.055 149.267 860.024C148.387 886.338 152.439 908.121 164.442 923.371C161.427 923.646 158.297 924.048 155.05 924.576C145.103 912.39 141.258 895.151 141.547 874.165C142.019 839.994 153.335 795.797 167.097 747.315L167.095 747.309ZM165.76 740.441C166.034 741.926 166.326 743.396 166.613 744.869C152.596 794.157 140.995 839.152 140.515 874.129C140.226 895.083 143.893 912.403 153.346 924.873C150.458 925.384 147.478 925.991 144.406 926.695C136.096 916.49 132.575 902.261 132.512 884.899C132.38 848.07 147.619 797.039 165.76 740.441ZM164.525 733.458C164.787 734.975 165.054 736.489 165.325 737.999C146.908 795.411 131.343 847.238 131.475 884.905C131.536 902.276 134.899 916.612 142.788 927.075C139.999 927.745 137.134 928.499 134.193 929.335C126.849 920.593 123.528 908.43 123.245 893.509C122.511 854.841 141.899 797.561 164.523 733.457L164.525 733.458ZM163.387 726.381C163.627 727.947 163.867 729.516 164.119 731.068C141.2 795.972 121.459 854.041 122.209 893.584C122.493 908.521 125.66 920.798 132.623 929.786C129.925 930.574 127.165 931.432 124.34 932.361C117.479 924.729 114.232 913.997 113.796 900.713C112.485 860.746 136.195 797.576 163.385 726.379L163.387 726.381ZM162.329 719.238C162.55 720.83 162.779 722.412 163.015 723.985C135.514 795.985 111.421 859.936 112.763 900.834C113.199 914.144 116.295 924.996 122.781 932.877C120.181 933.75 117.528 934.681 114.822 935.671C108.055 928.912 104.758 919.155 104.203 906.906C102.363 866.264 130.184 798.052 161.759 720.63L162.329 719.238ZM161.349 712.043C161.555 713.647 161.783 715.232 162 716.827L160.943 719.421C129.234 797.167 101.291 865.676 103.168 907.085C103.724 919.362 106.859 929.244 113.235 936.268C110.757 937.187 108.234 938.157 105.667 939.177C98.6378 933.15 95.1482 924.051 94.4866 912.371C92.2138 872.244 122.718 801.557 157.687 720.518L161.349 712.043ZM160.487 704.68C160.675 706.317 160.862 707.958 161.06 709.58L156.888 719.252C121.768 800.634 91.1353 871.622 93.4553 912.582C94.1177 924.282 97.4266 933.52 104.022 939.834C101.696 940.771 99.3343 941.75 96.9353 942.77C89.2729 937.432 85.4425 928.756 84.6745 917.283C82.0281 877.748 115.079 804.842 153.338 720.45C155.699 715.236 158.08 709.978 160.48 704.676L160.487 704.68ZM159.701 697.251C159.861 698.935 160.021 700.619 160.205 702.274C157.638 707.949 155.088 713.578 152.554 719.164C114.133 803.915 80.9417 877.128 83.6474 917.543C84.4162 929.025 88.0354 937.853 95.1849 943.53L92.7545 944.583C91.3857 945.182 90.0425 945.76 88.7137 946.325C80.0186 941.733 75.6674 933.346 74.785 921.785C71.8146 882.898 107.283 807.987 148.723 720.46C152.343 712.815 156.001 705.076 159.699 697.246L159.701 697.251ZM158.991 689.759C159.138 691.443 159.299 693.128 159.459 694.812C155.592 703.017 151.758 711.127 147.956 719.142C106.338 807.038 70.7169 882.269 73.757 922.078C74.6369 933.609 78.7074 942.154 86.7298 947.166C84.7031 948.014 82.7241 948.822 80.793 949.59C70.8065 945.843 65.8274 937.724 64.8258 925.951C61.577 887.748 99.3441 811.015 143.866 720.561C148.837 710.45 153.878 700.181 158.988 689.755L158.991 689.759ZM158.374 682.158C158.505 683.868 158.647 685.566 158.789 687.267C153.509 698.07 148.282 708.712 143.109 719.196C98.3994 810.034 60.469 887.092 63.8034 926.265C64.7954 937.931 69.3818 946.223 78.4434 950.508C76.6402 951.205 74.8802 951.869 73.1634 952.498C61.6474 949.743 55.941 941.909 54.8193 929.857C51.3314 892.347 91.2801 813.95 138.778 720.742C145.196 708.122 151.76 695.242 158.371 682.153L158.374 682.158ZM157.855 674.44C157.964 676.186 158.07 677.932 158.193 679.664C151.393 693.137 144.638 706.386 138.033 719.352C90.3329 812.958 50.2138 891.688 53.793 930.192C54.8945 942.028 60.0473 950.05 70.2586 953.53C68.7578 954.057 67.2911 954.553 65.8585 955.018C52.545 953.435 45.9985 945.929 44.7546 933.537C41.0602 896.738 83.0849 816.818 133.461 721.011C141.431 705.841 149.611 690.286 157.853 674.436L157.855 674.44ZM157.41 666.652C157.498 668.422 157.59 670.184 157.693 671.936C149.259 688.164 140.886 704.086 132.733 719.604C82.1417 815.818 39.9394 896.077 43.7377 933.911C44.9378 945.889 50.665 953.599 62.0578 956.213C60.9911 956.537 59.9431 956.843 58.9137 957.131C43.5217 956.934 36.0234 949.824 34.6546 937.055C30.785 900.968 74.7785 819.648 127.94 721.388C137.539 703.635 147.44 685.335 157.407 666.648L157.41 666.652ZM157.037 658.798C157.11 660.58 157.202 662.341 157.286 664.111C147.115 683.184 137.014 701.857 127.221 719.955C73.8353 818.632 29.6546 900.296 33.6386 937.45C34.9186 949.418 41.1026 956.756 53.4378 958.553L52.3842 958.797C34.5978 960.233 26.0194 953.605 24.5226 940.425C20.5034 905.044 66.3721 822.438 122.223 721.857C133.527 701.49 145.242 680.391 157.035 658.794L157.037 658.798ZM156.768 650.817C156.826 652.619 156.883 654.42 156.95 656.211C144.95 678.205 133.019 699.691 121.51 720.411C65.4225 821.414 19.3602 904.369 23.5042 940.848C24.7842 952.151 30.7946 958.982 42.6777 960.501C24.6178 962.578 15.885 956.468 14.3578 943.681C10.213 909.004 57.8633 825.214 116.315 722.431C129.411 699.395 143.048 675.415 156.766 650.813L156.768 650.817ZM198 238.298L197.532 241.428L197.982 238.087L198 238.298ZM199.28 229.711L198.662 233.845L198.619 233.33L199.194 229.07L199.28 229.711ZM200.568 221.113L199.854 225.879L199.743 225.016L200.399 220.179L200.568 221.113ZM201.857 212.512L201.067 217.78L200.873 216.687L201.593 211.4L201.857 212.512ZM203.15 203.896L202.299 209.56L202.011 208.335L202.782 202.691L203.15 203.896ZM204.442 195.279L203.546 201.25L203.156 199.959L203.967 194.038L204.442 195.279ZM205.738 186.657L205.27 189.763L204.805 192.868L204.307 191.565L205.15 185.441L205.738 186.657ZM207.032 178.031L206.072 184.421L205.464 183.149L206.33 176.86L207.032 178.031ZM208.32 169.392C208.28 169.669 208.246 169.947 208.204 170.223L207.349 175.921L206.629 174.713L207.511 168.311L208.32 169.392ZM209.298 160.423C209.118 162.771 208.885 165.077 208.598 167.342L207.728 166.174C207.932 163.893 208.082 161.579 208.178 159.23L209.298 160.423ZM209.726 151.144C209.681 153.567 209.586 155.955 209.441 158.307L208.252 157.038C208.313 154.704 208.325 152.337 208.288 149.939L209.726 151.144ZM209.673 141.875C209.743 144.281 209.77 146.655 209.753 148.999L208.238 147.725C208.176 145.428 208.069 143.103 207.918 140.751L209.673 141.875ZM209.224 132.842C209.384 135.166 209.509 137.463 209.598 139.732L207.771 138.556C207.608 136.348 207.411 134.121 207.181 131.873L209.224 132.842ZM8.90103e-05 68.0433L8.77709e-05 53.8663C4.1361 16.7766 19.1089 -25.2858 34.2937 -67.9299C51.5905 -116.513 69.1617 -165.864 71.1344 -209.087C71.8241 -224.195 70.5929 -238.574 66.7712 -251.942L67.9712 -251.942C71.6808 -238.51 72.8664 -224.079 72.1745 -208.922C70.1745 -165.183 52.5281 -115.611 35.1537 -66.8123C18.0921 -18.8985 1.30169 28.2682 8.90103e-05 68.0433ZM317.389 1125.94L316.277 1125.94C317.809 1118.63 319.05 1111.46 320 1104.43L320 1111.76C319.253 1116.43 318.383 1121.16 317.389 1125.94ZM91.3792 -251.946C92.0992 -245.249 92.2208 -238.312 91.8384 -231.172C90.0785 -198.459 77.9257 -161.339 65.5985 -123.696C49.9985 -76.0533 34.1233 -27.5822 38.4785 14.4388C42.2969 49.6653 70.7505 62.3128 104.06 77.1175C115.76 82.3228 128.06 87.7854 140.096 94.586C125.522 87.4471 110.618 82.5188 96.7153 77.9213C63.7353 67.0191 36.4329 57.9908 32.9969 25.9488C28.7249 -15.59 45.0905 -64.7409 61.2849 -113.38C74.4977 -153.059 87.5976 -192.405 89.4144 -227.324C89.864 -235.821 89.64 -244.049 88.5928 -251.946L87.5065 -251.946C88.5881 -244.115 88.8281 -235.951 88.3865 -227.516C86.5945 -193.068 73.5601 -153.919 60.4153 -114.441C44.1089 -65.4681 27.6305 -15.9758 31.9817 26.3315C35.5569 59.7071 63.1769 68.8456 96.5417 79.8748C107.374 83.4558 118.815 87.2404 130.226 92.1135C116.062 87.0613 101.877 83.9181 88.7289 81.0016C55.9697 73.737 29.6793 67.904 26.4993 37.84C22.2401 -3.96979 39.2001 -54.1296 56.0905 -104.084C70.1289 -145.602 84.1184 -186.98 85.972 -223.654C86.468 -233.462 86.0952 -242.919 84.6344 -251.941L83.532 -251.941C85.04 -242.983 85.4337 -233.587 84.9409 -223.841C83.1121 -187.649 69.1905 -146.473 55.2209 -105.16C38.2169 -54.8691 21.1409 -4.36785 25.4857 38.2319C28.8153 69.7152 55.4401 75.6263 88.6161 82.9842C98.5697 85.1919 109.118 87.5328 119.799 90.731C106.174 87.5711 92.7593 85.9957 80.3921 84.5473C48.0841 80.7597 22.9297 77.811 20.0065 49.7403C15.7505 7.63816 33.2969 -43.5275 50.8769 -94.785C65.7425 -138.126 80.6369 -181.542 82.5224 -219.989C83.0697 -231.115 82.5272 -241.807 80.5928 -251.946L79.4681 -251.946C81.4681 -241.872 82.0352 -231.237 81.4912 -220.168C79.6264 -182.23 64.8049 -139.015 50.0081 -95.8735C32.3113 -44.2792 14.6481 7.2202 18.9881 50.1216C22.0681 79.6926 47.5737 82.6826 80.3321 86.5223C89.3929 87.5848 99.0145 88.7132 108.866 90.4845C95.9057 88.9995 83.3209 88.8004 71.7593 88.6075C40.1113 88.0962 16.1809 87.7073 13.5081 61.6346C9.2561 19.2262 27.3825 -32.9269 45.6481 -85.4781C61.3465 -130.642 77.148 -176.103 79.0728 -216.312C79.6696 -228.769 78.9385 -240.707 76.4697 -251.952L75.3217 -251.952C77.8689 -240.775 78.6353 -228.893 78.0417 -216.491C76.1409 -176.792 60.4105 -131.536 44.7833 -86.5743C26.4001 -33.6847 8.15609 18.8082 12.4897 62.0112C15.3249 89.6731 39.6209 90.0681 71.7513 90.5856C79.8777 90.7173 88.5105 90.8581 97.4233 91.4475C85.2633 91.4184 73.5905 92.3661 62.8921 93.2526C32.0873 95.7772 9.43771 97.6343 7.0097 73.5319C2.7593 30.8173 21.4609 -22.3202 40.4057 -76.1544C56.9401 -123.136 73.6601 -170.647 75.6209 -212.627C76.2657 -226.429 75.3185 -239.612 72.2608 -251.955L71.0968 -251.955C74.252 -239.675 75.236 -226.54 74.5936 -212.798C72.6569 -171.345 56.0105 -124.041 39.5489 -77.2659C20.4841 -23.0903 1.66409 30.3887 5.9953 73.9024C8.59128 99.6858 31.6177 97.798 62.9361 95.2306C70.0721 94.6458 77.6433 94.0257 85.5009 93.6874C74.2889 94.8754 63.6129 96.7738 53.8393 98.51C24.0377 103.809 2.7049 107.601 0.515288 85.4292C0.264006 82.8653 0.0938401 80.2748 0.00570509 77.6717L0.0057061 89.2199C4.08569 109.343 25.1257 105.602 53.9329 100.485C75.1065 96.7203 100.523 92.2038 126.426 95.8016C129.974 96.4253 133.524 97.2005 137.077 98.1272C140.33 99.1132 143.576 100.24 146.814 101.509C149.822 102.826 152.809 104.273 155.774 105.85C158.48 107.426 161.156 109.121 163.802 110.932C166.249 112.748 168.659 114.671 171.033 116.701C173.173 118.676 175.27 120.743 177.324 122.902C179.164 124.986 180.957 127.146 182.702 129.382L182.83 129.632C183.63 131.716 184.455 133.78 185.305 135.825C186.018 138.121 186.756 140.397 187.518 142.653C188.145 145.169 188.796 147.661 189.468 150.13C190.007 152.858 190.567 155.562 191.148 158.245C191.594 161.171 192.06 164.074 192.543 166.953C192.898 170.095 193.272 173.213 193.663 176.306C193.926 179.674 194.204 183.015 194.497 186.331C194.662 189.903 194.841 193.446 195.036 196.959C195.103 200.735 195.183 204.478 195.276 208.187C195.241 212.222 195.219 216.223 195.21 220.191C195.071 224.438 194.945 228.65 194.831 232.825C194.585 237.316 194.35 241.772 194.127 246.192C193.772 250.905 193.428 255.577 193.095 260.21C192.628 265.152 192.171 270.051 191.726 274.907C191.137 280.096 190.562 285.238 190 290.331C189.294 295.786 188.601 301.192 187.92 306.55C167.44 447.529 154.301 557.145 156.683 648.244C142.757 673.234 128.907 697.593 115.612 720.965C56.9153 824.186 9.06578 908.319 13.345 944.121C15.245 960.022 27.2138 966.372 52.745 960.625C56.3274 960.337 60.265 959.731 64.5753 958.788C68.1994 958.509 72.1743 957.918 76.5002 957.015C80.1466 956.749 84.1295 956.187 88.449 955.331C92.1583 955.083 96.1988 954.543 100.571 953.711C104.291 953.484 108.326 952.982 112.676 952.203C116.463 952.006 120.559 951.538 124.965 950.799C128.766 950.636 132.864 950.215 137.259 949.536C141.106 949.417 145.242 949.049 149.667 948.434C153.561 948.366 157.734 948.06 162.187 947.515C166.098 947.515 170.276 947.287 174.722 946.832C177.175 946.88 179.729 946.845 182.384 946.727C187.771 946.984 192.941 947.389 197.894 947.941C206.652 949.165 214.804 950.759 222.349 952.722C225.368 959.388 227.348 967.135 228.389 975.84C232.737 1012.22 220.88 1065.27 200.16 1125.94L201.351 1125.94C221.999 1065.23 233.779 1012.06 229.398 975.402C228.405 967.095 226.587 959.633 223.866 953.125L224.857 953.393L224.909 953.408L224.914 953.408C225.682 953.634 226.445 953.863 227.203 954.095C231.424 961.989 234.042 971.51 235.24 982.441C239.146 1018.06 228.184 1068.54 208.949 1125.94L210.135 1125.94C229.297 1068.5 240.191 1017.91 236.256 982.039C235.111 971.591 232.717 962.395 228.923 954.634C229.912 954.948 230.888 955.268 231.858 955.593C237.5 964.648 240.818 976.002 242.139 989.274C245.589 1024.01 235.511 1071.86 217.758 1125.94L218.942 1125.94C236.622 1071.83 246.631 1023.88 243.159 988.908C241.898 976.201 238.871 965.215 233.815 956.249C234.638 956.534 235.453 956.822 236.263 957.114C243.588 967.294 247.69 980.58 249.086 996.373C252.069 1030.1 242.864 1075.24 226.589 1125.94L227.767 1125.94C243.968 1075.22 253.111 1030 250.111 996.05C248.778 980.956 245.059 968.098 238.531 957.961C239.157 958.198 239.784 958.434 240.402 958.676C249.705 969.956 254.664 985.284 256.082 1003.77C258.584 1036.33 250.227 1078.69 235.424 1125.95L236.6 1125.95C251.33 1078.67 259.627 1036.25 257.109 1003.49C255.76 985.858 251.297 971.036 243.072 959.743C243.472 959.907 243.859 960.074 244.253 960.241C255.858 972.619 261.751 990.124 263.133 1011.49C265.153 1042.72 257.627 1082.2 244.291 1125.94L245.459 1125.94C258.725 1082.19 266.195 1042.66 264.164 1011.25C262.853 990.977 257.613 974.093 247.479 961.638L247.753 961.762C262.053 975.255 268.972 995.11 270.24 1019.58C271.779 1049.28 265.063 1085.78 253.177 1125.94L254.344 1125.94C266.16 1085.79 272.819 1049.24 271.272 1019.39C270.12 997.159 264.456 978.648 253.044 965.114C268.983 979.781 276.385 1001.45 277.4 1028.06C278.467 1056.02 272.532 1089.45 262.08 1125.95L263.243 1125.95C273.625 1089.47 279.508 1056.01 278.436 1027.92C277.52 1003.9 271.561 983.816 259.059 969.128C276.278 985.115 283.947 1008.5 284.621 1036.97C285.237 1062.95 280.061 1093.2 271.016 1125.95L272.169 1125.95C281.143 1093.23 286.275 1062.97 285.657 1036.88C285.04 1010.93 278.792 989.135 265.078 973.151C283.714 990.635 291.651 1015.87 291.903 1046.32C292.098 1070.07 287.648 1097.01 279.983 1125.94L281.131 1125.94C288.731 1097.06 293.131 1070.11 292.938 1046.29C292.706 1018.24 286.146 994.539 271.011 977.071C291.301 996.279 299.507 1023.56 299.242 1056.15C299.068 1077.39 295.322 1100.91 288.991 1125.94L290.131 1125.94C296.396 1100.97 300.103 1077.47 300.277 1056.18C300.524 1025.91 293.671 1000.14 276.961 981.005C299.084 1002.17 307.535 1031.62 306.641 1066.45C306.167 1084.9 303.082 1104.87 298.034 1125.94L299.164 1125.94C304.152 1104.95 307.2 1085.01 307.675 1066.54C308.515 1033.85 301.343 1005.82 282.747 984.776C307.046 1008.2 315.753 1039.99 314.099 1077.19C313.415 1092.57 310.968 1108.89 307.129 1125.94L308.249 1125.94C312.034 1108.98 314.45 1092.72 315.133 1077.36C316.696 1042.17 309.233 1011.76 288.528 988.539C306.164 1005.71 316.048 1026.43 319.999 1049.93L319.999 1043.96C315.919 1024.49 307.614 1007.02 294.038 992.004C305.708 1003.43 314.206 1016.04 319.999 1029.7L319.999 1026.56C315.008 1015.37 308.197 1004.9 299.31 995.215C307.667 1003.45 314.512 1012.08 320 1021.12L320 1018.51C315.63 1011.49 310.445 1004.73 304.376 998.195C310.259 1004.03 315.451 1009.98 320 1016.04L320 1013.64C316.559 1009.12 312.757 1004.67 308.595 1000.28C312.697 1004.36 316.498 1008.45 320 1012.56L320 1010.26C316.881 1006.65 313.537 1003.04 309.971 999.443C313.508 1002.92 316.851 1006.37 320 1009.8L320 1007.53C301.627 987.673 277.05 967.057 245.159 944.611L245.119 944.588C187.627 913.89 175.622 853.494 175.418 781.619C175.667 782.488 175.927 783.353 176.183 784.221C182.006 851.695 199.371 909.478 253.223 946.456C280.591 968.992 302.63 988.891 320 1007.25L320 1005C302.652 986.724 280.742 966.952 253.636 944.635L253.606 944.615C201.755 909.031 184.006 853.917 177.73 789.407C177.854 789.809 177.988 790.206 178.114 790.607C179.327 796.81 180.663 802.931 182.123 808.971C194.993 862.005 218.14 908.542 261.661 946.454C284.658 968.405 303.991 987.439 320 1004.52L320 1002.25C304.051 985.266 284.867 966.377 262.113 944.657L262.097 944.641C218.831 906.961 195.835 860.76 183.065 808.137C182.408 805.433 181.778 802.712 181.175 799.974C199.095 852.609 227.699 899.817 270.075 946.405C278.039 955.161 284.255 961.969 290.199 968.477C301.051 980.361 310.971 991.225 320 1001.26L320 998.964C311.106 989.083 301.36 978.409 290.715 966.753C283.891 959.282 276.692 951.399 270.591 944.69C225.791 895.44 196.458 845.465 178.911 789.019C178.085 784.753 177.314 780.446 176.596 776.099C176.223 771.031 175.906 765.911 175.647 760.741C175.775 755.212 175.955 749.627 176.167 743.996C176.763 738.038 177.392 732.022 178.037 725.964L179.448 717.16C179.996 713.745 180.545 710.319 181.095 706.88C182.452 700.316 183.8 693.713 185.139 687.072C186.773 680.356 188.381 673.611 189.961 666.84C191.828 659.97 193.653 653.081 195.437 646.172C197.454 639.313 199.416 632.444 201.323 625.565C203.457 618.712 205.528 611.858 207.536 605.001C209.776 598.119 211.943 591.242 214.038 584.368C216.339 577.529 218.562 570.698 220.706 563.874C223.044 557.104 225.298 550.347 227.47 543.605C229.847 536.86 232.138 530.132 234.342 523.422C236.71 516.816 238.989 510.231 241.181 503.665C243.581 497.065 245.889 490.488 248.105 483.935C250.567 477.242 252.932 470.572 255.2 463.925C257.605 457.434 259.917 450.971 262.138 444.535C264.553 438.069 266.876 431.631 269.106 425.22C271.573 418.661 273.943 412.129 276.218 405.623C302.099 337.115 317.68 271.85 313.701 216.486C310.894 177.411 266.487 157.084 224.181 137.716C219.456 135.552 214.758 133.403 210.148 131.239C206.566 83.4206 188.699 25.8018 171.321 -30.2263C156.288 -78.6958 141.624 -125.968 136.979 -164.428C132.68 -200.033 136.267 -228.577 139.897 -251.946L138.818 -251.946C135.181 -228.446 131.644 -199.786 135.968 -163.984C140.649 -125.223 155.353 -77.817 170.428 -29.2158C187.663 26.3591 205.384 83.4925 209.068 130.73L206.954 129.731C202.054 85.7568 184.691 34.1013 167.582 -16.7918C151.292 -65.2507 135.234 -113.019 130.484 -152.531C125.803 -191.744 131.61 -223.875 136.388 -250.314L136.682 -251.946L135.586 -251.946L135.408 -250.958C130.585 -224.268 124.726 -191.845 129.47 -152.088C134.262 -112.238 150.368 -64.326 166.707 -15.7186C183.647 34.6723 200.837 85.8135 205.832 129.196L203.752 128.199C197.667 87.9109 180.792 41.8006 163.979 -4.11832C146.363 -52.2403 128.822 -100.154 123.979 -140.634C119.364 -179.758 126.037 -213.216 131.654 -241.373C132.374 -244.98 133.077 -248.502 133.734 -251.936L132.626 -251.936C132.006 -248.721 131.351 -245.439 130.681 -242.077C125.013 -213.659 118.281 -179.899 122.966 -140.185C127.852 -99.3412 145.452 -51.2636 163.126 -2.97774C179.737 42.3977 196.416 87.963 202.586 127.645L200.558 126.653C193.42 89.869 176.994 48.8661 160.501 7.69479C141.501 -39.7505 122.4 -87.4163 117.485 -128.735C112.925 -167.845 120.425 -202.588 126.866 -232.415C128.326 -239.176 129.732 -245.685 130.934 -251.946L129.829 -251.946C128.662 -245.924 127.31 -239.664 125.909 -233.168C119.41 -203.075 111.839 -168.024 116.474 -128.295C121.443 -86.5498 140.609 -38.714 159.687 8.90121C175.944 49.4724 192.135 89.8982 199.344 126.043L197.378 125.062C189.307 91.5792 173.289 55.235 157.119 18.5526C136.662 -27.8578 115.962 -74.8163 110.987 -116.834C106.471 -155.979 114.771 -191.966 122.027 -223.409C124.32 -233.382 126.517 -242.9 128.174 -251.946L127.074 -251.946C125.444 -243.168 123.307 -233.906 121.074 -224.212C113.757 -192.493 105.384 -156.191 109.975 -116.406C115.007 -73.9084 135.789 -26.7647 156.326 19.8279C172.215 55.8735 187.957 91.5883 196.074 124.394C195.44 124.073 194.809 123.75 194.181 123.425C185.285 93.0153 169.616 60.8798 153.758 28.3616C131.81 -16.6494 109.501 -62.3954 104.49 -104.937C100.01 -144.172 109.08 -181.365 117.13 -214.381C120.353 -227.595 123.414 -240.157 125.395 -251.946L124.306 -251.946C122.342 -240.439 119.346 -228.148 116.191 -215.217C108.07 -181.909 98.9208 -144.387 103.471 -104.513C108.542 -61.4431 130.95 -15.492 152.991 29.7119C168.511 61.5442 183.857 93.0076 192.768 122.692L190.959 121.738C181.323 94.1467 165.926 65.7728 150.346 37.0622C126.882 -6.17749 102.998 -50.1919 97.9825 -93.0427C93.5385 -132.389 103.353 -170.76 112.19 -205.319C116.413 -221.797 120.409 -237.421 122.56 -251.946L121.483 -251.946C119.339 -237.744 115.411 -222.382 111.269 -206.184C102.355 -171.33 92.4577 -132.623 96.9769 -92.6156C102.061 -49.1722 126.06 -4.9481 149.636 38.4967C164.814 66.4679 179.816 94.1191 189.422 120.916C188.85 120.61 188.28 120.3 187.714 119.985C177.394 94.9474 162.182 69.9034 146.823 44.6284C121.84 3.51827 96.4801 -38.2196 91.4904 -81.1347C87.0769 -120.614 97.6137 -160.149 107.228 -196.219C112.495 -215.981 117.489 -234.714 119.636 -251.947L118.569 -251.947C116.418 -235.077 111.494 -216.603 106.302 -197.122C96.6088 -160.755 85.9817 -120.893 90.4745 -80.7244C95.5441 -37.1479 121.04 4.80887 146.149 46.1379C161.021 70.6138 175.758 94.8708 185.985 119.027C185.452 118.727 184.922 118.427 184.398 118.127C173.426 95.376 158.283 73.2686 143.072 51.0601C116.602 12.4164 89.9281 -26.5259 84.9921 -69.2404C80.6041 -108.884 91.8449 -149.55 102.225 -187.101C108.596 -210.15 114.646 -232.032 116.617 -251.946L115.561 -251.946C113.582 -232.43 107.602 -210.799 101.307 -188.025C90.8433 -150.17 79.5113 -109.179 83.9769 -68.8271L83.9769 -68.8194C88.9929 -25.3899 115.817 13.7744 142.441 52.64C157.058 73.9789 171.613 95.2291 182.411 116.977C181.922 116.689 181.437 116.401 180.955 116.112C169.33 95.4097 154.143 75.8911 138.995 56.4216C111.102 20.5689 83.3329 -15.1215 78.4913 -57.3462C74.1281 -97.1749 86.0537 -138.948 97.1881 -177.954C104.708 -204.287 111.867 -229.377 113.485 -251.946L112.439 -251.946C110.81 -229.807 103.719 -204.973 96.2793 -178.904C85.0561 -139.588 73.0345 -97.4749 77.4793 -56.9328C82.4097 -13.9319 110.354 21.985 138.422 58.0612C152.822 76.574 167.263 95.1326 178.597 114.659C178.155 114.383 177.716 114.107 177.28 113.831C164.986 94.9994 149.668 77.8202 134.516 60.8247C105.302 28.0616 76.7113 -4.0142 71.9969 -45.4565C67.6545 -85.4842 80.2496 -128.357 92.1312 -168.791C100.49 -197.237 108.498 -224.498 110.088 -248.934C110.154 -249.943 110.206 -250.946 110.248 -251.946L109.208 -251.946C109.167 -251.027 109.119 -250.108 109.059 -249.176C107.495 -225.126 99.5345 -198.033 91.2249 -169.756C79.2521 -129.004 66.5569 -85.7981 70.9849 -45.037C75.7961 -2.74961 104.585 29.5405 133.997 62.5348C148.16 78.4418 162.48 94.5034 174.298 111.888L174.194 111.817C173.832 111.573 173.469 111.332 173.106 111.093C160.158 94.0992 144.694 79.1246 129.549 64.4531C99.1577 35.0183 70.0513 6.8252 65.4961 -33.5531C61.1705 -73.8058 74.4225 -117.757 87.0409 -159.596C96.1961 -189.957 105.021 -219.221 106.65 -245.393C106.787 -247.601 106.871 -249.785 106.902 -251.946L105.862 -251.946C105.833 -249.86 105.753 -247.754 105.622 -245.626C104.018 -219.844 95.2473 -190.758 86.1481 -160.584C73.4329 -118.419 60.0785 -74.1319 64.4857 -33.1443L64.4857 -33.1321C69.1457 8.16788 98.4697 36.5708 129.087 66.2291C143.014 79.7186 157.21 93.4699 169.439 108.783L168.576 108.267C154.955 92.9908 139.263 80.0401 124.057 67.4906C92.6761 41.5924 63.3713 17.4059 59.0033 -21.6497C54.6921 -62.1321 68.5889 -107.146 81.9369 -150.38C91.8921 -182.627 101.546 -213.894 103.213 -241.817C103.418 -245.177 103.498 -248.561 103.453 -251.942L102.413 -251.942C102.461 -248.636 102.385 -245.327 102.185 -242.042C100.542 -214.539 90.9449 -183.451 81.0473 -151.392C67.5985 -107.831 53.5977 -62.4796 57.9913 -21.2455L57.9913 -21.2378C62.4713 18.8266 92.0145 43.2091 123.65 69.3171C137.437 80.6954 151.623 92.4059 164.276 105.857L163.858 105.637C149.489 91.9007 133.411 80.7934 118.009 70.153C85.8577 47.943 56.6649 27.7752 52.5073 -9.75082C48.2105 -50.4751 62.7401 -96.5441 76.8097 -141.153C87.5705 -175.272 98.0665 -208.548 99.7697 -238.217C100.039 -242.776 100.077 -247.373 99.8808 -251.946L98.8312 -251.946C99.0322 -247.448 98.9984 -242.924 98.7304 -238.439C97.0504 -209.206 86.6113 -176.114 75.9097 -142.183C61.7369 -97.2483 47.1017 -50.8441 51.4825 -9.35429L51.4825 -9.34203C55.7601 29.2603 85.2113 49.6087 117.65 72.0116C131.127 81.3216 145.122 90.9959 158.017 102.455C143.057 90.5029 126.805 81.3277 111.407 72.6454C78.7265 54.2062 49.9305 37.9594 46.0009 2.14958C41.7121 -38.8319 56.8641 -85.9405 71.6489 -131.916C83.2209 -167.894 94.5728 -203.184 96.3201 -234.604C96.6489 -240.537 96.6353 -246.324 96.2208 -251.946L95.164 -251.946C95.5929 -246.393 95.6137 -240.674 95.2889 -234.814C93.5697 -203.85 82.2777 -168.744 70.7665 -132.951C55.8761 -86.6539 40.6153 -39.2116 44.9849 2.5415C49.0401 39.5286 78.1145 55.9363 111.114 74.5546C123.71 81.6599 136.88 89.099 149.434 98.1027C134.577 88.6443 118.967 81.7028 104.302 75.1854C71.3417 60.5369 43.1921 48.0241 39.5057 14.0545C35.2257 -27.2102 50.9889 -75.343 66.4809 -122.652C78.8689 -160.489 91.0897 -197.807 92.8697 -230.971C93.2561 -238.18 93.1489 -245.185 92.4497 -251.946L91.3792 -251.946ZM261.659 946.446L261.665 946.446L261.659 946.446ZM109.865 946.515L109.871 946.515L109.865 946.515Z" fill="white"/>
</mask>
<g mask="url(#mask0_2303_3303)">
<path d="M6.10352e-05 -251.946L320 -251.946L320 1125.94L0.000181494 1125.94L6.10352e-05 -251.946Z" fill="#C7C7C7"/>
</g>
</svg>
