<svg width="109" height="45" viewBox="0 0 109 45" fill="none" xmlns="http://www.w3.org/2000/svg">
<g clip-path="url(#clip0_870_3477)">
<g clip-path="url(#clip1_870_3477)">
<path d="M8.21875 19C12.9896 19 15.2971 16.4051 15.812 14.1404L15.8593 13.9823H11.6809L11.6497 14.0683C11.3628 14.648 10.8886 15.1325 10.2916 15.4556C9.69458 15.7788 9.00379 15.925 8.31319 15.8744C5.98967 15.8744 4.54015 14.441 4.49293 11.9895H16V10.6994C16 6.05519 12.9281 3 8.03255 3C3.13695 3 3.05176e-05 6.12727 3.05176e-05 11.0172V11.0319C3.05176e-05 15.9465 3.10488 19 8.21875 19ZM8.10739 6.12727C9.99435 6.12727 11.3503 7.23139 11.631 9.35282H4.53659C4.83504 7.27398 6.23646 6.12727 8.10739 6.12727Z" fill="white"/>
<path d="M34.0218 21.5739V20.9719L29.0715 16.1938L23.6636 21.4147V21.5739H18.086V16.1905H18.3702L23.7198 11.0284L18.3112 5.80949H18.086V0.426025H23.6642V0.643452L39.9465 16.353L39.602 16.6835V21.5739H34.0218ZM32.4282 7.73197V0.426025H40.0001V7.73197H32.4282Z" fill="white"/>
<path d="M37.4813 19.5913V16.8505L22.5163 2.40864H20.0344V4.76503L26.5248 11.0286L20.0344 17.2917V19.5913H22.5751L28.9867 13.4039L35.3978 19.5913H37.4813ZM37.8797 5.74903V2.40864H34.3781V5.74903H37.8797ZM39.5157 21.5739H33.9374L28.9866 16.1941L23.5783 21.5739H18V16.1907L23.6335 11.0285L18 5.80929V0.426025H23.5783L39.5157 16.6886V21.5739ZM39.9141 7.73164H32.3438V0.426025H39.9141V7.73164Z" fill="white"/>
<path d="M50.1337 21.9947C54.5328 21.9947 57.3789 19.3221 57.5942 15.8096V15.7228H53.4104L53.3946 15.8583C53.3009 16.6285 52.9158 17.3351 52.3167 17.8363C51.7175 18.3375 50.9487 18.5962 50.1645 18.5604C47.9496 18.5604 46.5608 16.7738 46.5608 13.6209V13.6061C46.5608 10.5288 47.9452 8.68219 50.1452 8.68219C50.9289 8.64822 51.6967 8.90756 52.2955 9.40842C52.8942 9.90929 53.2798 10.6149 53.3753 11.3843L53.406 11.5198H57.5819V11.4147C57.4123 7.93175 54.5671 5.24788 50.0907 5.24788C45.1528 5.24788 42 8.44594 42 13.5948V13.6096C41.9965 18.7966 45.1009 21.9947 50.1337 21.9947ZM66.7651 21.9947C71.4718 21.9947 73.7483 19.277 74.2563 16.9049L74.3029 16.7399H70.1806L70.1499 16.8267C69.8628 17.4368 69.3933 17.9453 68.8047 18.2835C68.2162 18.6218 67.5368 18.7736 66.8582 18.7185C64.566 18.7185 63.1359 17.2167 63.0893 14.6501H74.4409V13.2986C74.4409 8.43465 71.4103 5.23659 66.5805 5.23659C61.7507 5.23659 58.6586 8.50935 58.6586 13.6287V13.6434C58.6586 18.7966 61.7199 21.9947 66.7651 21.9947ZM66.657 8.51282C68.5186 8.51282 69.8563 9.66888 70.1332 11.8907H63.135C63.4277 9.71057 64.8112 8.51282 66.657 8.51282ZM83.7506 21.9947C88.4574 21.9947 90.7338 19.277 91.2419 16.9049L91.2884 16.7399H87.1662L87.1354 16.8267C86.8483 17.4368 86.3789 17.9453 85.7903 18.2835C85.2017 18.6218 84.5224 18.7736 83.8438 18.7185C81.5515 18.7185 80.1215 17.2167 80.0749 14.6501H91.4264V13.2986C91.4264 8.43465 88.3958 5.23659 83.5661 5.23659C78.7363 5.23659 75.6441 8.50935 75.6441 13.6287V13.6434C75.6441 18.7966 78.7055 21.9947 83.7506 21.9947ZM83.6425 8.51282C85.5041 8.51282 86.8419 9.66888 87.1187 11.8907H80.1206C80.4124 9.71057 81.7967 8.51282 83.6425 8.51282ZM99.336 21.9947C100.396 22.0418 101.447 21.7738 102.352 21.2253C103.256 20.6767 103.974 19.8729 104.412 18.9174H104.504V21.6646H109V0H104.509V8.36256H104.412C103.979 7.40007 103.263 6.58786 102.359 6.03057C101.454 5.47328 100.401 5.19644 99.336 5.23572C95.183 5.23572 92.6297 8.36256 92.6297 13.5983V13.613C92.6297 18.8418 95.183 21.9947 99.336 21.9947ZM100.843 18.3615C98.5977 18.3615 97.1976 16.5453 97.1976 13.6174V13.6026C97.1976 10.6599 98.6127 8.87327 100.843 8.87327C103.013 8.87327 104.52 10.7051 104.52 13.6026V13.6174C104.517 16.5297 103.028 18.3615 100.843 18.3615Z" fill="white"/>
</g>
<path d="M88.1663 24H85.1159V40.1704H88.1663V24Z" fill="white"/>
<path d="M70.6483 31.0667H73.5854V30.4144L81.8841 24H77.018L70.6483 28.7989" fill="white"/>
<path d="M78.666 31.064H73.5864V31.0653H70.648V34.0472H78.4973C79.3644 34.0472 80.0667 34.7495 80.0667 35.6166V37.1859H65.9597V28.799H63.0437V37.1872H59.6797V30.7728H56.8533V37.1872H53.3997V32.8811H50.4837V37.1872H42.724V28.799H39.8304V37.1872H30.3208V34.7087C30.3208 31.4567 27.6854 28.8214 24.4334 28.8214H22.8522V31.7822H24.075C25.9646 31.7822 27.4957 33.3133 27.4957 35.2028V37.1872H20.8336V40.1032H83.0051V35.4044C83.0051 33.0076 81.0628 31.064 78.666 31.064Z" fill="white"/>
<path d="M38.6592 41.8583H35.6655V44.8521H38.6592V41.8583Z" fill="white"/>
<path d="M42.8311 41.8583H39.8373V44.8521H42.8311V41.8583Z" fill="white"/>
</g>
<defs>
<clipPath id="clip0_870_3477">
<rect width="109" height="44.8521" fill="white"/>
</clipPath>
<clipPath id="clip1_870_3477">
<rect width="109" height="22" fill="white"/>
</clipPath>
</defs>
</svg>
