<svg width="160" height="160" viewBox="0 0 160 160" fill="none" xmlns="http://www.w3.org/2000/svg">
<g filter="url(#filter0_d_380_1434)">
<rect x="40" y="36" width="80" height="80" rx="40" fill="#62B34F" shape-rendering="crispEdges"/>
<path d="M68.1003 96.0667C71.6003 98.1667 75.8003 99.3334 80.0003 99.3334C92.8337 99.3334 103.334 88.8334 103.334 76C103.334 63.1667 92.8337 52.6667 80.0003 52.6667C67.167 52.6667 56.667 63.1667 56.667 76C56.667 80.2 57.8337 84.1667 59.7003 87.6667L57.1074 97.6393C56.9127 98.3883 57.6059 99.0651 58.35 98.8525L68.1003 96.0667Z" stroke="white" stroke-width="4" stroke-miterlimit="10" stroke-linecap="round" stroke-linejoin="round"/>
<path d="M90.5 82.6465C90.5 83.0245 90.4159 83.413 90.2371 83.791C90.0583 84.169 89.827 84.526 89.522 84.862C89.0068 85.429 88.4389 85.8385 87.7974 86.101C87.1665 86.3635 86.483 86.5 85.7469 86.5C84.6743 86.5 83.528 86.248 82.3187 85.7335C81.1094 85.219 79.9001 84.526 78.7013 83.6545C77.492 82.7725 76.3458 81.796 75.2521 80.7145C74.169 79.6225 73.191 78.478 72.3182 77.281C71.4559 76.084 70.7619 74.887 70.2571 73.7005C69.7524 72.5035 69.5 71.359 69.5 70.267C69.5 69.553 69.6262 68.8705 69.8786 68.2405C70.1309 67.6 70.5305 67.012 71.0879 66.487C71.7609 65.8255 72.497 65.5 73.2752 65.5C73.5696 65.5 73.864 65.563 74.1269 65.689C74.4004 65.815 74.6422 66.004 74.8315 66.277L77.2712 69.7105C77.4604 69.973 77.5971 70.2145 77.6918 70.4455C77.7864 70.666 77.839 70.8865 77.839 71.086C77.839 71.338 77.7654 71.59 77.6182 71.8315C77.4815 72.073 77.2817 72.325 77.0293 72.577L76.2301 73.4065C76.1144 73.522 76.0618 73.6585 76.0618 73.8265C76.0618 73.9105 76.0724 73.984 76.0934 74.068C76.1249 74.152 76.1565 74.215 76.1775 74.278C76.3668 74.6245 76.6928 75.076 77.1555 75.622C77.6287 76.168 78.1335 76.7245 78.6803 77.281C79.2481 77.8375 79.7949 78.352 80.3523 78.8245C80.8991 79.2865 81.3513 79.6015 81.7088 79.7905C81.7614 79.8115 81.8245 79.843 81.8981 79.8745C81.9822 79.906 82.0664 79.9165 82.161 79.9165C82.3398 79.9165 82.4765 79.8535 82.5921 79.738L83.3913 78.9505C83.6542 78.688 83.9066 78.4885 84.1485 78.3625C84.3903 78.2155 84.6322 78.142 84.8951 78.142C85.0949 78.142 85.3052 78.184 85.5366 78.2785C85.7679 78.373 86.0098 78.5095 86.2727 78.688L89.7534 81.1555C90.0268 81.3445 90.2161 81.565 90.3317 81.8275C90.4369 82.09 90.5 82.3525 90.5 82.6465Z" fill="white"/>
</g>
<defs>
<filter id="filter0_d_380_1434" x="0" y="0" width="160" height="160" filterUnits="userSpaceOnUse" color-interpolation-filters="sRGB">
<feFlood flood-opacity="0" result="BackgroundImageFix"/>
<feColorMatrix in="SourceAlpha" type="matrix" values="0 0 0 0 0 0 0 0 0 0 0 0 0 0 0 0 0 0 127 0" result="hardAlpha"/>
<feOffset dy="4"/>
<feGaussianBlur stdDeviation="20"/>
<feComposite in2="hardAlpha" operator="out"/>
<feColorMatrix type="matrix" values="0 0 0 0 0.713726 0 0 0 0 0.780392 0 0 0 0 0.882353 0 0 0 0.56 0"/>
<feBlend mode="normal" in2="BackgroundImageFix" result="effect1_dropShadow_380_1434"/>
<feBlend mode="normal" in="SourceGraphic" in2="effect1_dropShadow_380_1434" result="shape"/>
</filter>
</defs>
</svg>
