<svg width="56" height="56" viewBox="0 0 56 56" fill="none" xmlns="http://www.w3.org/2000/svg">
<path d="M16.1003 48.0667C19.6003 50.1667 23.8003 51.3334 28.0003 51.3334C40.8337 51.3334 51.3337 40.8334 51.3337 28C51.3337 15.1667 40.8337 4.66669 28.0003 4.66669C15.167 4.66669 4.66699 15.1667 4.66699 28C4.66699 32.2 5.83366 36.1667 7.70033 39.6667L5.10743 49.6393C4.91271 50.3883 5.60592 51.0651 6.34998 50.8525L16.1003 48.0667Z" stroke="white" stroke-width="4" stroke-miterlimit="10" stroke-linecap="round" stroke-linejoin="round"/>
<path d="M38.5 34.6465C38.5 35.0245 38.4159 35.413 38.2371 35.791C38.0583 36.169 37.827 36.526 37.522 36.862C37.0068 37.429 36.4389 37.8385 35.7974 38.101C35.1665 38.3635 34.483 38.5 33.7469 38.5C32.6743 38.5 31.528 38.248 30.3187 37.7335C29.1094 37.219 27.9001 36.526 26.7013 35.6545C25.492 34.7725 24.3458 33.796 23.2521 32.7145C22.169 31.6225 21.191 30.478 20.3182 29.281C19.4559 28.084 18.7619 26.887 18.2571 25.7005C17.7524 24.5035 17.5 23.359 17.5 22.267C17.5 21.553 17.6262 20.8705 17.8786 20.2405C18.1309 19.6 18.5305 19.012 19.0879 18.487C19.7609 17.8255 20.497 17.5 21.2752 17.5C21.5696 17.5 21.864 17.563 22.1269 17.689C22.4004 17.815 22.6422 18.004 22.8315 18.277L25.2712 21.7105C25.4604 21.973 25.5971 22.2145 25.6918 22.4455C25.7864 22.666 25.839 22.8865 25.839 23.086C25.839 23.338 25.7654 23.59 25.6182 23.8315C25.4815 24.073 25.2817 24.325 25.0293 24.577L24.2301 25.4065C24.1144 25.522 24.0618 25.6585 24.0618 25.8265C24.0618 25.9105 24.0724 25.984 24.0934 26.068C24.1249 26.152 24.1565 26.215 24.1775 26.278C24.3668 26.6245 24.6928 27.076 25.1555 27.622C25.6287 28.168 26.1335 28.7245 26.6803 29.281C27.2481 29.8375 27.7949 30.352 28.3523 30.8245C28.8991 31.2865 29.3513 31.6015 29.7088 31.7905C29.7614 31.8115 29.8245 31.843 29.8981 31.8745C29.9822 31.906 30.0664 31.9165 30.161 31.9165C30.3398 31.9165 30.4765 31.8535 30.5921 31.738L31.3913 30.9505C31.6542 30.688 31.9066 30.4885 32.1485 30.3625C32.3903 30.2155 32.6322 30.142 32.8951 30.142C33.0949 30.142 33.3052 30.184 33.5366 30.2785C33.7679 30.373 34.0098 30.5095 34.2727 30.688L37.7534 33.1555C38.0268 33.3445 38.2161 33.565 38.3317 33.8275C38.4369 34.09 38.5 34.3525 38.5 34.6465Z" fill="white"/>
</svg>
