<svg width="16" height="16" viewBox="0 0 16 16" fill="none" xmlns="http://www.w3.org/2000/svg">
<path d="M6.94199 13.3453H6.93606C6.89778 13.3446 6.86005 13.336 6.82514 13.3203C6.79023 13.3046 6.75887 13.2819 6.73293 13.2538L1.37481 7.42753C1.33025 7.37909 1.30389 7.31668 1.30024 7.25096C1.29659 7.18524 1.31588 7.12029 1.35481 7.06722C1.39375 7.01415 1.44989 6.97624 1.51365 6.95994C1.57742 6.94365 1.64487 6.94997 1.70449 6.97784L6.60856 9.27409C6.64981 9.29347 6.69856 9.28409 6.73012 9.25128L14.2107 1.43284C14.312 1.3269 14.4776 1.31534 14.5926 1.40659C14.7076 1.49784 14.7342 1.66159 14.6539 1.7844L7.21262 13.1838C7.20199 13.2003 7.1895 13.2153 7.17575 13.2294L7.14293 13.2622C7.08953 13.3153 7.01731 13.3452 6.94199 13.3453Z" fill="#F4A631"/>
</svg>
