<svg width="17" height="17" viewBox="0 0 17 17" fill="none" xmlns="http://www.w3.org/2000/svg">
<path d="M16.1939 0.138311C16.3783 -0.0461035 16.6772 -0.0461035 16.8616 0.138311C17.046 0.322725 17.046 0.621648 16.8616 0.806062L9.77828 9.77828L0.806062 16.8616C0.621648 17.046 0.322725 17.046 0.138311 16.8616C-0.0461035 16.6772 -0.0461035 16.3783 0.138311 16.1939L7.22164 7.22164L16.1939 0.138311Z" fill="#F06A26"/>
<path d="M0.806139 0.138311C0.621725 -0.0461035 0.322802 -0.0461035 0.138388 0.138311C-0.0460262 0.322725 -0.0460262 0.621648 0.138388 0.806062L7.22172 9.77828L16.1939 16.8616C16.3784 17.046 16.6773 17.046 16.8617 16.8616C17.0461 16.6772 17.0461 16.3783 16.8617 16.1939L9.77836 7.22164L0.806139 0.138311Z" fill="#F06A26"/>
</svg>
