<svg width="20" height="20" viewBox="0 0 20 20" fill="none" xmlns="http://www.w3.org/2000/svg">
<path d="M12.0391 17.0747C11.7416 17.7237 11.545 18.4281 11.4697 19.1667L17.7636 17.8499C18.061 17.201 18.2574 16.4965 18.3329 15.7579L12.0391 17.0747Z" fill="white"/>
<path d="M17.7643 13.9049C18.0617 13.256 18.2583 12.5515 18.3337 11.8128L13.4309 12.8391V10.8662L17.7642 9.95993C18.0616 9.31102 18.2582 8.60651 18.3335 7.86786L13.4308 8.89324V1.79829C12.6796 2.21343 12.0124 2.76603 11.47 3.41786V9.30357L9.50928 9.71376V0.833313C8.75804 1.24831 8.09087 1.80106 7.54853 2.45289V10.1238L3.16132 11.0413C2.86391 11.6903 2.66716 12.3948 2.5917 13.1334L7.54853 12.0966V14.5811L2.23632 15.6921C1.9389 16.341 1.74231 17.0455 1.66699 17.7842L7.22739 16.6212C7.68003 16.5285 8.06907 16.2652 8.32201 15.9027L9.34175 14.4147V14.4144C9.44761 14.2605 9.50928 14.0749 9.50928 13.875V11.6865L11.47 11.2763V15.222L17.7642 13.9046L17.7643 13.9049Z" fill="white"/>
</svg>
