<svg width="32" height="32" viewBox="0 0 32 32" fill="none" xmlns="http://www.w3.org/2000/svg">
<path d="M19.2625 27.3193C18.7866 28.3578 18.4721 29.4847 18.3516 30.6666L28.4217 28.5597C28.8976 27.5215 29.2119 26.3942 29.3326 25.2124L19.2625 27.3193Z" fill="#F06A26"/>
<path d="M28.4227 22.248C28.8986 21.2098 29.2132 20.0826 29.3337 18.9007L21.4893 20.5427V17.3862L28.4225 15.9361C28.8984 14.8978 29.2129 13.7706 29.3334 12.5888L21.4891 14.2294V2.87745C20.2871 3.54169 19.2196 4.42585 18.3519 5.46877V14.8859L15.2147 15.5422V1.3335C14.0127 1.99749 12.9452 2.88189 12.0774 3.92481V16.1983L5.05792 17.6663C4.58206 18.7046 4.26727 19.8318 4.14652 21.0136L12.0774 19.3548V23.3299L3.57791 25.1076C3.10205 26.1459 2.7875 27.2731 2.66699 28.4549L11.5636 26.5941C12.2879 26.4459 12.9103 26.0245 13.315 25.4445L14.9466 23.0638V23.0633C15.116 22.817 15.2147 22.52 15.2147 22.2002V18.6985L18.3519 18.0422V24.3554L28.4225 22.2476L28.4227 22.248Z" fill="#F06A26"/>
</svg>
