<svg width="40" height="40" viewBox="0 0 40 40" fill="none" xmlns="http://www.w3.org/2000/svg">
<path d="M35.0162 18.7002V26.1835C35.0162 33.6668 32.0328 36.6669 24.5328 36.6669H15.5495C14.5829 36.6669 13.6995 36.617 12.8828 36.5003" stroke="#C7C7C7" stroke-width="2.5" stroke-linecap="round" stroke-linejoin="round"/>
<path d="M5.06641 25.8669V18.7002" stroke="#C7C7C7" stroke-width="2.5" stroke-linecap="round" stroke-linejoin="round"/>
<path d="M20.0502 20.0002C23.1002 20.0002 25.3502 17.5169 25.0502 14.4669L23.9334 3.3335H16.1501L15.0335 14.4669C14.7335 17.5169 17.0002 20.0002 20.0502 20.0002Z" stroke="#C7C7C7" stroke-width="2.5" stroke-linecap="round" stroke-linejoin="round"/>
<path d="M30.5496 20.0002C33.9162 20.0002 36.3829 17.2668 36.0495 13.9168L35.5828 9.33346C34.9828 5.00012 33.3162 3.3335 28.9495 3.3335H23.8662L25.0329 15.0168C25.3329 17.7668 27.7996 20.0002 30.5496 20.0002Z" stroke="#C7C7C7" stroke-width="2.5" stroke-linecap="round" stroke-linejoin="round"/>
<path d="M9.44998 20.0002C12.2 20.0002 14.6833 17.7668 14.95 15.0168L15.3167 11.3336L16.1166 3.3335H11.0333C6.66667 3.3335 5.00003 5.00012 4.40003 9.33346L3.93332 13.9168C3.59999 17.2668 6.08332 20.0002 9.44998 20.0002Z" stroke="#C7C7C7" stroke-width="2.5" stroke-linecap="round" stroke-linejoin="round"/>
<path d="M15.0003 31.6667C15.0003 32.9167 14.6503 34.1001 14.0336 35.1001C13.717 35.6334 13.3336 36.1167 12.8836 36.5C12.8336 36.5667 12.7837 36.6167 12.717 36.6667C11.5503 37.7167 10.017 38.3333 8.33366 38.3333C6.30033 38.3333 4.48361 37.4166 3.28361 35.9833C3.25028 35.9333 3.20037 35.9 3.16703 35.85C2.96703 35.6167 2.78369 35.3668 2.63369 35.1001C2.01702 34.1001 1.66699 32.9167 1.66699 31.6667C1.66699 29.5667 2.63366 27.6833 4.16699 26.4667C4.45033 26.2333 4.75029 26.0334 5.06696 25.8667C6.03362 25.3167 7.15033 25 8.33366 25C10.0003 25 11.5003 25.6 12.667 26.6166C12.867 26.7666 13.0503 26.95 13.217 27.1334C14.317 28.3334 15.0003 29.9167 15.0003 31.6667Z" stroke="#C7C7C7" stroke-width="2.5" stroke-miterlimit="10" stroke-linecap="round" stroke-linejoin="round"/>
<path d="M10.8162 31.6333H5.84961" stroke="#C7C7C7" stroke-width="2.5" stroke-miterlimit="10" stroke-linecap="round" stroke-linejoin="round"/>
<path d="M8.33301 29.2002V34.1835" stroke="#C7C7C7" stroke-width="2.5" stroke-miterlimit="10" stroke-linecap="round" stroke-linejoin="round"/>
</svg>
